<svg width="1232" height="734" viewBox="0 0 1232 734" fill="none" xmlns="http://www.w3.org/2000/svg">
<g style="mix-blend-mode:multiply">
<path fill-rule="evenodd" clip-rule="evenodd" d="M1219.07 140.275C1210.96 135.569 1202.92 130.728 1194.71 126.199C1188.46 122.746 1181.86 120.066 1174.52 120.024C1171.89 118.6 1169.27 118.41 1166.65 120.059C1161.05 121.123 1165.27 125.448 1164.02 127.958C1160.35 127.207 1158.85 123.612 1156 121.796C1156 121.783 1156 121.77 1156 121.76C1155.96 121.744 1155.92 121.734 1155.89 121.715V121.718C1155.89 121.718 1155.89 121.715 1155.89 121.715L1155.99 121.844C1151.88 121.941 1147.76 122.034 1143.65 122.131C1140.62 121.992 1137.59 121.68 1134.57 121.763C1130.83 121.864 1127.45 121.632 1126.23 117.235C1125.02 114.014 1122.7 112.374 1119.26 112.316C1115.34 110.528 1111.44 110.747 1107.55 112.074C1107.18 112.084 1106.82 112.2 1106.48 112.451C1103.66 112.238 1100.82 112.052 1098.86 109.558C1098.27 107.787 1097.7 105.999 1095.82 105.1C1089.39 100.51 1082 99.2378 1074.34 98.8803C1061.96 97.8786 1060.58 98.7547 1057.46 109.552C1050.29 109.526 1043.1 109.497 1035.93 109.471C1035.91 109.562 1035.89 109.648 1035.87 109.736C1035.81 109.697 1035.75 109.665 1035.68 109.626L1035.93 109.471C1033.94 108.36 1031.91 103.557 1030 109.539C1028.79 111.201 1027.65 112.982 1025.14 112.57C1022.62 109.99 1021.03 106.901 1020.22 103.393C1021.67 98.6417 1024.08 93.4978 1015.86 92.6827C1010.66 91.6583 1005.12 86.9814 1000.69 94.1097C1000.41 94.4897 1000.32 94.9084 1000.43 95.366C995.339 95.556 990.253 95.7428 985.168 95.9296C983.115 95.4528 981.061 94.9763 979.011 94.4963C973.393 92.2222 966.594 92.9825 962.058 87.9222C962.055 87.9061 962.052 87.89 962.048 87.8739C963.967 87.8354 966.863 88.3958 966.279 85.4322C965.83 83.1323 963.304 83.2261 961.32 84.5464C960.961 84.1504 960.596 83.7477 960.233 83.3513C962.332 81.6636 964.426 79.9756 966.524 78.2879C968.573 77.486 969.14 76.0268 968.425 74.0004C966.086 71.0242 964.008 67.6807 959.554 67.658C954.893 65.2226 949.898 66.9009 945.072 66.4821C945.262 66.5916 945.469 66.6917 945.676 66.7914C945.441 66.7078 945.231 66.6109 945.072 66.4821C939.009 56.2744 933.748 55.6818 926.436 64.3886C922.944 68.125 918.191 69.8837 913.896 72.3544C906.808 72.5734 899.438 69.1494 892.706 73.9973C890.957 73.9361 889.298 74.1421 888.066 75.5947C886.106 75.1858 884.819 76.3162 883.59 77.5693C879.705 79.3795 876.23 81.5892 875.188 86.1761C873.717 89.7869 870.94 90.2316 867.323 90.2798C862.776 90.3474 857.631 89.2653 854.136 93.7553C849.892 96.5191 856.009 100.694 852.789 103.596C849.69 103.457 846.593 103.319 843.495 103.181C839.201 107.133 835.678 107.558 834.143 100.459C830.753 104.646 829.181 107.789 829.429 109.887C829.898 110.815 830.369 111.739 830.834 112.664C831.181 119.267 828.837 126.005 832.003 132.506C832.425 133.379 830.768 133.752 829.75 133.775C828.595 130.795 827.435 127.812 826.279 124.833C825.738 119.186 825.198 113.54 824.66 107.893C826.252 103.535 828.816 98.7613 820.686 98.5164C821.352 96.9638 822.649 95.4146 820.634 93.8686C819.71 93.1598 818.78 93.0793 817.973 93.9039C816.317 95.5951 817.297 97.0638 818.498 98.4681V98.4713C816.541 98.9352 814.943 99.9274 813.829 101.628C804.109 109.752 803.43 116.12 811.172 126.421C811.214 128.302 813.742 129.842 811.645 132.422C806.427 129.571 801.365 126.199 795.849 123.931C787.012 120.3 785.955 121.122 784.269 130.093C784.133 130.808 783.62 131.455 783.278 132.132C783.551 132.509 783.789 132.837 784.016 133.124C783.73 132.83 783.472 132.496 783.278 132.132C780.197 131.652 777.964 127.599 774.203 129.974C773.203 130.415 772.201 130.859 771.201 131.301C768.461 131.442 765.29 133.926 763.145 132.087C757.41 127.171 753.359 131.085 749.068 133.99C745.525 136.387 742.196 139.096 738.769 141.669C737.244 141.834 735.718 142.004 734.196 142.172C733.652 141.029 733.111 139.885 732.565 138.745C733.372 135.862 733.987 133.011 731.336 130.144C729.542 131.99 728.487 133.613 728.355 135.765C723.966 138.864 730.336 143.344 726.971 146.572C724.618 148.814 721.285 146.34 718.87 148.257C715.905 158.017 706.007 156.284 699.398 160.007C698.197 156.937 697 153.871 695.802 150.804C696.058 150.769 696.313 150.74 696.565 150.688C700.133 149.883 703.66 150.524 707.231 150.853C712.386 151.323 717.065 150.505 718.521 144.343C718.48 142.104 718.315 139.92 716.107 138.593C709.246 132.238 700.027 130.26 692.193 125.693C687.663 123.055 682.691 122.233 677.484 123.248C676.759 121.75 676.082 120.258 677.635 118.838C678.287 114.187 676.042 113.372 669.561 115.907C668.048 115.768 666.532 115.63 665.016 115.488C659.331 113.871 654.258 114.148 651.029 120.059C645.535 122.065 637.571 120.21 636.585 129.278C635.474 130.218 634.362 131.162 632.758 130.357C631.599 129.21 630.771 127.1 628.621 128.498C627.954 128.93 627.282 130.131 627.398 130.853C627.72 132.821 629.506 132.544 630.971 132.615C631.668 134.357 630.602 135.739 630.025 137.218C628.817 138.229 627.609 139.237 626.401 140.246C624.728 140.593 623.686 141.631 623.179 143.235C620.615 145.834 619.397 149.029 619.011 152.595C618.708 153.004 618.597 153.462 618.676 153.964C616.606 155.688 614.763 157.595 613.73 160.142C612.802 161.09 611.871 162.037 610.94 162.984C609.146 163.37 607.967 164.414 607.492 166.215C604.409 168.163 600.909 169.574 598.806 172.815C590.953 178.229 595.015 184.833 596.964 191.227C596.706 194.238 595.392 197.672 599.785 198.948C604.432 200.294 607.273 198.029 609.215 194.08H609.213L609.215 194.077C610.724 192.47 611.955 189.754 614.618 192.715C614.174 197.862 617.521 201.846 618.835 206.453C619.89 209.667 618.031 211.313 615.527 212.611C615.25 214.666 615.623 218.335 617.028 217.698C620.228 216.245 624.987 217.172 626.564 212.666C631.705 211.2 634.87 208.704 633.236 202.5C632.726 200.561 634.058 198.132 634.549 195.929C643.016 191.426 643.251 188.826 635.68 183.418C635.217 181.865 634.755 180.313 634.296 178.763C635.767 177.031 636.036 174.995 635.797 172.83C639.349 170.018 642.895 167.206 646.443 164.397C649.403 162.826 650.294 160.365 649.524 157.198C650.073 154.344 651.566 152.189 654.203 150.878C658.24 151.567 664.375 149.203 663.381 157.198C659.062 159.028 656.311 162.416 654.22 166.452C646.921 168.814 649.527 174.457 649.738 179.472C649.976 185.08 654.115 188.775 659.651 187.696C663.387 186.968 667.208 186.352 670.766 185.067C675.665 183.293 676.1 185.457 675.248 189.339C669.769 193.053 662.677 188.105 657.353 192.66C654.275 197.156 657.981 200.162 659.769 203.589C659.865 203.669 659.968 203.711 660.068 203.779C659.959 203.882 659.848 203.982 659.741 204.082C659.613 204.004 659.5 203.93 659.364 203.853C657.459 202.02 655.597 200.061 652.55 201.44C647.851 206.862 648.503 214.441 644.931 220.313C640.4 222.004 634.641 216.837 630.88 222.829C624.22 223.714 617.602 223.92 611.133 221.63C609.695 218.226 609.999 215.166 612.914 212.621C612.637 211.564 612.362 210.508 612.086 209.452C611.946 209.313 611.864 209.145 611.808 208.962C611.821 208.984 611.834 209.007 611.847 209.029C611.439 207.444 614.638 203.811 609.51 204.909C603.383 207.837 603.87 212.598 606.065 217.71C607.671 221.443 608.324 224.926 604.672 227.883C601.389 227.983 598.397 228.981 595.574 230.521C595.229 230.627 594.879 230.81 594.531 231.113C591.41 232.808 592.773 236.467 591.152 238.815C588.534 240.825 583.637 239.901 583.325 244.884C581.753 246.356 580.184 247.828 578.614 249.3C578.105 249.7 577.598 250.099 577.09 250.495C575.638 252.347 570.585 245.142 571.344 252.827C571.524 254.67 569.542 254.303 568.512 254.09C566.018 253.578 562.87 252.467 562.139 255.675C561.402 258.922 565.46 258.777 567.316 260.227C568.276 260.977 569.43 261.476 570.5 262.092C570.675 265.561 575.148 267.217 574.315 271.111C574.209 273.073 574.103 275.037 573.995 277.003C572.991 278.581 571.987 280.162 570.983 281.741C566.942 281.393 562.903 281.042 558.864 280.694C555.182 280.469 551.284 278.33 548.023 281.905C544.238 284.762 548.427 287.829 547.789 290.77C547.59 291.301 547.493 291.784 547.451 292.245C546.662 295.656 545.723 299.051 545.378 302.501C544.777 308.505 548.023 312.09 552.58 311.121C555.23 311.913 555.238 315.009 557.189 316.407C561.366 313.208 567.715 315.952 571.344 311.243C578.387 308.209 576.071 300.903 578.429 295.73C580.567 291.697 587.211 292.2 587.708 286.514C587.609 284.208 588.084 282.117 589.938 280.542C590.814 280.526 591.687 280.516 592.559 280.5C593.391 281.538 594.478 281.856 595.755 281.644C601.131 282.301 603.958 277.769 607.972 275.653C611.316 276.487 612.092 279.715 613.887 281.995C614.533 285.58 617.417 287.594 619.862 289.636C623.896 293.008 629.043 295.105 631.45 300.259C631.653 301.586 630.656 303.197 632.153 304.16C632.48 304.376 633.592 303.799 634.051 303.313C636.093 301.135 634.106 299.821 632.864 298.368C634.234 297.08 635.606 295.791 637.301 294.2C634.489 292.168 632.022 289.291 628.989 288.451C624.416 287.188 625.694 282.537 623.036 280.44C622.154 278.643 620.722 277.599 618.741 277.312C618.78 275.26 618.823 273.205 618.865 271.15C622.691 266.94 624.334 274.777 627.76 272.764C627.823 273.279 628.002 273.746 628.299 274.168C628.802 277.109 630.19 279.361 633.005 280.675C636.977 282.533 640.234 285.352 643.184 288.547C643.295 293.024 642.78 297.727 647.505 300.546C648.361 303.925 650.855 306.656 651.055 310.38C651.152 312.135 654.547 313.533 654.534 312.477C654.477 309.033 663.1 307.739 656.721 302.858C655.147 301.654 655.229 298.278 654.555 295.901C655.447 296.203 656.341 296.503 657.235 296.806C659.564 296.777 658.832 293.955 660.457 293.282C668.355 292.519 667.069 298.925 668.322 303.355C665.178 306.923 670.426 307.429 670.668 309.761C672 312.48 674.205 313.981 677.165 314.432C677.155 314.41 677.144 314.39 677.134 314.368C678.7 314.671 679.653 314.606 680.209 314.307C686.664 314.638 693.265 317.215 699.424 312.925H699.427C699.708 313.36 699.99 313.791 700.267 314.223C701.031 320.22 698.43 325.538 696.872 331.066C695.229 337.225 692.843 342.243 684.969 338.745C680.433 338.243 676.285 341.322 671.679 340.192L671.674 340.189C666.364 338.049 660.734 336.458 655.833 333.614C650.378 330.451 646.216 331.427 645.092 337.866C644.529 341.094 643.401 342.346 640.375 342.295C638.909 341.155 636.545 342.362 635.393 340.395C634.696 338.14 632.853 336.967 631.027 335.779C627.743 329.44 620.763 332.042 615.902 329.517C612.186 324.408 618.226 317.412 612.639 312.667C610.162 310.599 608.941 310.567 600.054 312.371C600.089 312.342 600.131 312.313 600.16 312.28C595.074 313.553 589.437 310.009 584.667 314.049C578.78 314.944 574.156 318.381 569.421 321.602C566.397 320.501 562.86 320.89 560.28 318.481C554.633 320.981 553.319 327.217 549.354 331.217C546.12 334.48 543.996 338.529 545.113 343.493C544.12 349.996 539.18 352.876 534.023 355.559C528.388 360.472 526.355 367.233 524.513 374.087C522.889 377.099 519.704 379.45 520.563 383.503C520.042 386.26 521.478 388.647 522.029 391.201C522.1 391.259 522.158 391.323 522.21 391.394C522.15 391.33 522.09 391.265 522.029 391.201C522.412 393.768 522.796 396.335 523.182 398.903C520.795 406.514 516.035 413.932 521.328 422.153C522.693 425.403 525.155 427.706 527.887 429.777C528.803 430.808 529.721 431.839 530.639 432.873C533.199 438.873 535.635 444.965 541.673 448.511C544.667 451.919 547.898 456.358 552.773 454.66C558.992 452.499 564.896 452.963 571.023 453.794C580.358 448.621 589.721 442.198 598.579 454.538C601.079 455.978 603.839 455.208 606.476 455.469C613.845 459.83 610.672 466.273 609.066 471.781C607.74 476.332 607.145 480.12 610.549 483.782C611.567 486.25 613.135 488.273 615.393 489.735C615.84 490.289 616.286 490.843 616.733 491.397C617.477 492.86 618.22 494.325 618.964 495.788C620.51 502.99 622.057 510.199 623.599 517.402C623.83 517.614 623.944 517.885 624.015 518.181C623.876 517.924 623.736 517.663 623.599 517.402C623.455 520.455 623.305 523.505 623.161 526.553C619.689 532.254 615.303 537.659 617.202 545.09C616.882 551.665 619.634 557.167 623.216 562.385C627.844 568.762 624.675 576.902 627.995 583.573C629.8 593.366 635.297 601.441 640.182 609.8C637.974 618.323 639.426 621.483 646.479 623.509C649.613 623.872 651.797 621.927 654.136 620.358C656.047 620.316 657.959 620.275 659.867 620.236C659.998 620.249 660.13 620.246 660.257 620.226C665.395 621.427 668.705 617.778 672.562 615.588C676.882 613.362 678.482 609.213 680.061 605.038H680.056L680.061 605.035C680.55 603.434 680.016 601.444 681.855 600.358C684.873 596.78 690.281 593.178 689.234 588.846C687.274 580.739 692.674 579.022 697.316 576.042C699.246 573.894 699.418 570.801 698.551 568.83C695.649 562.25 696.108 556.088 699.131 549.851C700.301 548.927 701.354 547.445 702.662 547.168C713.651 544.807 717.637 538.088 715.607 527.294C715.287 525.577 715.474 523.77 715.421 522.005C715.662 519.312 716.939 516.593 715.155 513.958C710.78 507.484 711.159 500.156 711.409 492.857C716.356 487.507 716.446 479.396 721.932 474.355C726.857 470.692 732.288 467.632 735.952 462.491V462.488C738.916 459.87 740.884 456.671 741.67 452.773C742.304 451.755 742.939 450.734 743.578 449.713C746.572 446.093 748.75 442.073 749.64 437.415C751.893 433.141 753.467 428.757 751.89 423.004C744.741 426.917 736.671 426.589 729.586 429.91C728.498 428.799 727.411 427.684 726.321 426.576C726.387 426.122 726.426 425.668 726.432 425.213C725.196 421.522 723.536 418.108 720.186 415.824C719.193 411.775 716.087 409.829 712.62 408.248C710.107 403.42 711.784 396.475 705.263 393.666C704.656 390.271 704.046 386.869 703.438 383.474C700.201 377.989 699.884 371.263 696.015 366.051C695.843 364.489 695.481 363.01 694.166 361.967C693.508 360.43 692.844 358.894 692.189 357.354C692.173 356.117 690.349 354.71 692.53 353.672C693.998 353.396 695.46 353.119 696.927 352.845C699.145 356.894 701.364 360.942 703.584 364.992C703.566 371.344 711.34 373.924 711.053 380.408C710.766 383.487 710.509 386.554 714.207 387.971C715.176 389.569 716.146 391.166 717.115 392.764C717.191 394.822 718.354 396.275 719.788 397.576C725.155 402.576 721.405 410.316 725.263 415.773C725.019 418.014 727.03 418.916 728.03 420.421C732.53 419.947 736.209 417.312 740.3 415.766C743.951 413.824 747.596 411.878 751.242 409.93C750.818 409.134 750.659 408.49 750.683 407.952C751.084 408.238 751.314 408.821 751.242 409.93C754.183 409.862 756.152 408.773 755.974 405.43C759.714 402.276 766.204 403.535 768.288 397.734C769.399 397.377 770.768 397.354 770.901 395.724C773.674 391.955 776.241 388.006 779.282 384.463C782.619 380.569 782.194 377.38 778.422 374.281C777.688 372.246 775.665 372.293 774.096 371.614C770.956 369.613 770.107 366.205 769.137 362.405C764.531 367.98 760.663 373.971 752.613 369.629C753.275 366.054 751.95 363.458 749.224 361.029C744 356.378 740.646 350.863 743.41 343.454C744.845 343.503 746.28 343.551 747.717 343.599C748.654 344.669 749.587 345.741 750.526 346.814C751.95 350.116 752.054 354.493 757.077 354.873C757.437 355.247 757.799 355.617 758.161 355.988C759.973 359.734 762.888 360.465 766.58 359.074C768.099 358.642 769.079 356.748 771.011 357.447C771.497 357.93 771.98 358.417 772.466 358.9C773.161 364.775 777.546 364.743 781.887 364.785C782.913 364.894 783.931 365.004 784.951 365.117C791.652 368.096 798.316 364.292 805.003 364.997C805.51 365.542 806.009 366.083 806.514 366.627C807.725 372.335 810.965 375.736 817.073 375.853C813.935 379.592 813.222 382.842 818.881 384.807C822.797 386.224 822.293 382.446 823.594 380.794C825.278 380.884 825.267 382.668 826.227 383.483C826.296 383.564 826.375 383.635 826.478 383.68C826.484 386.182 826.493 388.685 826.496 391.185C826.513 391.694 826.526 392.2 826.541 392.705C826.192 397.196 827.876 401.145 829.8 405.029C833.014 416.635 836.802 428.015 842.361 439.238C850.583 430.84 853.527 421.818 851.042 411.182C851.026 410.666 851.015 410.148 851.002 409.632C851.567 408.589 852.137 407.545 852.702 406.505C857.487 405.387 860.003 401.799 862.153 397.814C864.216 395.643 866.284 393.468 868.344 391.294C874.509 390.395 874.068 383.889 877.422 380.603C881.469 379.946 887.019 382.797 888.409 375.917C890.234 376.21 892.28 377.08 892.335 378.812C892.55 385.432 898.035 389.036 900.614 394.264C900.937 397.002 902.418 399.544 901.707 402.488C901.366 403.87 901.231 405.728 903.009 406.424C904.64 407.062 906.075 406.237 906.821 404.733C908.318 401.711 910.216 401.428 912.646 403.573C912.173 409.487 913.701 415.015 915.965 420.394C916.044 428.028 912.686 436.306 920.158 442.539C921.713 449.194 922.451 456.129 926.655 461.898C926.065 462.468 925.474 463.045 924.885 463.621C923.504 462.971 922.124 462.32 920.744 461.669C921.24 455.797 913.169 456.393 912.814 451.162C910.475 449.435 907.78 449.113 905.271 450.205C904.485 450.55 905.186 452.463 906.289 453.297C909.85 458.387 914.834 462.403 917.531 468.15C919.962 472.302 922.394 476.457 924.822 480.609C925.317 483.869 927.38 486.42 929.888 487.908C933.453 490.021 934.533 497.504 939.039 495.027C942.394 493.188 941.202 486.784 940.64 482.271C941.386 482.349 942.131 482.423 942.872 482.5C942.376 481.134 942.252 479.282 941.28 478.529C940.275 477.746 939.043 478.876 938.712 480.297C934.037 476.986 934.213 470.762 930.61 466.804H930.613C931.479 466.655 932.349 466.507 933.219 466.353C934.944 465.48 935.741 464.497 935.147 462.217C932.908 453.6 931.252 444.733 921.942 440.439C919.489 434.148 915.523 428.018 920.468 421.076C921.028 420.291 920.338 418.616 920.226 417.353C920.452 416.899 920.61 416.425 920.703 415.923C921.594 416.023 922.481 416.123 923.37 416.223C923.977 420.642 928.923 420.632 930.93 423.622C931.307 428.998 939.716 429.104 937.46 437.054C942.507 432.602 944.805 428.086 949.223 425.896C952.144 424.446 952.876 421.866 952.631 418.848C952.567 416.822 952.501 414.799 952.434 412.776C952.172 406.462 947.007 403.212 943.702 398.8C942.525 396.277 941.352 393.755 940.175 391.23C940.323 390.183 940.475 389.133 940.627 388.086C941.083 387.558 941.534 387.023 941.99 386.492C945.234 385.519 946.768 382.407 949.357 380.616C950.892 381.331 953.211 381.641 953.829 382.833C956.662 388.299 956.213 382.021 957.414 381.953C964.667 377.749 974.246 378.41 980.033 371.137C981.202 369.987 982.375 368.837 983.541 367.69C987.706 366.16 986.648 361.837 988.221 358.928C991.855 354.316 995.936 349.922 995.656 343.435C996.15 335.698 993.093 329.233 988.463 323.332C987.05 315.536 994.497 314.312 998.279 310.518C994.349 307.345 990.804 308.511 987.337 310.937C983.199 306.134 980.49 301.547 989.118 298.558C989.484 298.426 989.669 297.769 989.938 297.36C990.904 296.313 991.871 295.266 992.837 294.216C999.859 294.49 993.206 299.279 995.311 301.402C999.518 300.813 1003.45 294.219 1008.26 300.32C1006.24 304.897 1006.54 308.218 1012.64 308.405C1012.61 308.82 1012.72 309.201 1012.95 309.545C1010.61 313.971 1012.84 318.497 1011.97 323.238C1023.93 318.568 1024.86 315.907 1018.94 305.071C1018.08 303.94 1017.22 302.806 1016.36 301.673C1011.02 296.802 1019.21 297.553 1019.18 294.882C1023.91 287.867 1029.04 281.534 1038.92 283.244C1046.78 278.126 1049.08 269.097 1053.96 261.872C1057.44 257.855 1060.27 253.549 1060.17 247.938C1060.28 243.354 1061.87 239.147 1063.15 234.808C1065.4 227.155 1060.27 221.943 1052.7 223.553C1051.29 223.856 1049.73 223.447 1048.24 223.363C1048.18 223.444 1048.13 223.525 1048.08 223.602C1048.06 223.576 1048.04 223.55 1048.03 223.521L1048.24 223.363C1041.55 216.541 1048.27 212.705 1051.64 208.127C1053.61 207.045 1055.05 205.483 1055.88 203.376C1057.48 201.447 1059.08 199.521 1060.68 197.591C1062.69 195.936 1064.69 194.28 1066.69 192.624C1073.36 191.548 1080.03 190.472 1086.69 189.397C1090.7 189.529 1094.57 190.012 1098.41 191.536C1101.45 192.747 1104.94 194.138 1107.97 191.065C1109.12 188.063 1110.28 185.061 1111.44 182.062C1114.78 178.654 1118.89 177.076 1123.61 176.928C1125.05 177.604 1127.75 176.177 1127.97 178.677C1128.68 186.588 1131.78 181.46 1133.73 179.678C1135.34 178.206 1136.3 176.032 1137.55 174.173C1138.04 173.632 1138.53 173.088 1139.02 172.544C1141.25 172.411 1142.12 173.864 1142.69 175.675C1142.59 176.197 1142.5 176.718 1142.4 177.237C1139.78 181.402 1135.47 183.27 1131.34 185.37C1128.62 187.016 1127.49 189.712 1126.62 192.567C1122.98 196.648 1119.34 200.732 1115.7 204.82C1110.34 215.778 1115.06 225.844 1118.11 236.264C1121.08 228.137 1127.68 222.845 1131.62 215.81C1132.56 212.479 1135.68 210.131 1135.87 206.456C1136.37 203.373 1136.87 200.291 1137.37 197.212C1138.14 195.749 1138.9 194.29 1139.67 192.827C1143.46 188.038 1147.13 182.971 1154.48 186.434C1156.71 188.592 1159.17 189.462 1162.11 187.864C1164.2 187.964 1165.68 186.855 1166.96 185.371C1172.16 181.177 1177.37 176.983 1182.57 172.789C1186.83 171.926 1192.47 173.7 1194.87 169.317C1196.52 166.324 1192.18 164.047 1190.13 161.699C1190.13 159.296 1191.73 157.74 1193.11 156.061C1196.28 154.973 1199.41 153.849 1198.79 149.487C1201.46 146.015 1204.07 149.007 1206.71 149.549C1209.36 152.654 1212.33 155.392 1215.81 157.566C1218.61 160.645 1220.92 160.771 1222.53 156.474C1224.07 152.364 1226.31 149.136 1231.38 149.51V147.97C1227.48 145.071 1224.16 141.264 1219.07 140.275L1219.07 140.275ZM599.573 312.702C599.72 312.596 599.853 312.496 600.013 312.386C600.018 312.39 600.021 312.393 600.027 312.396C599.905 312.512 599.75 312.612 599.573 312.702ZM704.595 292.309C700.486 289.407 696.352 286.611 691.087 287.896C690.625 287.69 690.134 287.519 689.641 287.39C684.524 288.75 679.082 288.73 674.189 291.03C674.035 291.13 673.882 291.23 673.727 291.33C672.941 289.359 672.154 287.381 671.367 285.406C675.086 281.354 674.869 275.698 677.212 271.082C680.28 269.426 680.52 262.156 686.553 266.373C689.514 271.849 692.194 277.937 700.103 272.535C698.037 266.808 702.477 266.196 705.709 264.627C703.978 267.001 701.952 269.265 703.147 272.696C704.981 274.674 706.811 276.655 709.616 277.257C712.296 279.26 714.971 281.27 717.648 283.274C715.978 286.138 716.424 289.987 713.646 292.322C711.42 290.335 708.771 290.686 706.059 291.382C705.497 291.633 705.023 291.955 704.595 292.31L704.595 292.309ZM906.689 88.8048C906.692 88.8178 906.701 88.8272 906.705 88.8402C906.677 88.8465 906.653 88.8531 906.626 88.8594C906.647 88.8433 906.668 88.8206 906.689 88.8045V88.8048ZM749.069 309.597C747.945 306.63 746.251 304.008 744.055 301.699C747.758 298.281 748.283 294.761 744.635 290.58C742.868 288.554 741.831 285.893 740.478 283.506C740.647 283.409 740.808 283.306 740.982 283.219C741.91 276.993 738.922 270.083 744.236 264.64C744.229 264.608 744.215 264.585 744.205 264.553C747.954 263.168 751.647 261.561 755.785 261.706C759.045 263.39 762.947 264.569 761.986 269.578C760.071 270.737 758.02 271.411 755.757 271.269C752.871 272.21 747.361 271.124 751.174 277.222C753.113 280.362 755.049 283.503 756.988 286.644C756.646 291.466 762.544 287.791 763.221 291.221C763.714 295.286 756.558 294.378 758.19 296.011C761.868 299.68 760.581 304.167 761.65 308.087C761.485 308.367 761.316 308.644 761.132 308.899C760.612 309.913 760.394 310.986 760.373 312.094C760.156 311.913 759.926 311.749 759.673 311.608C756.332 310.429 752.795 310.219 749.349 309.598C749.252 309.594 749.165 309.598 749.069 309.598L749.069 309.597ZM766.513 304.978C766.519 304.978 766.523 304.972 766.529 304.972C766.529 304.975 766.532 304.978 766.532 304.978C766.526 304.981 766.519 304.981 766.513 304.978ZM592.603 249.558C592.606 249.552 592.611 249.542 592.616 249.536C592.619 249.545 592.629 249.555 592.632 249.565C592.623 249.561 592.614 249.561 592.603 249.558ZM832.715 366.543H832.677C832.68 366.534 832.683 366.521 832.686 366.514C832.698 366.524 832.707 366.534 832.715 366.543ZM931.228 77.1701H931.056C931.09 77.125 931.121 77.0799 931.156 77.0379C931.18 77.0799 931.201 77.1247 931.228 77.1701ZM1171.46 127.967C1171.42 127.958 1171.39 127.954 1171.35 127.945C1171.37 127.9 1171.38 127.858 1171.39 127.812C1171.41 127.864 1171.43 127.916 1171.46 127.967ZM1164.02 127.954L1164.02 127.961C1164.02 127.961 1164.02 127.958 1164.02 127.954ZM620.317 206.501C620.33 206.495 620.35 206.489 620.361 206.482C620.388 206.492 620.416 206.505 620.443 206.514C620.409 206.54 620.375 206.569 620.343 206.598C620.337 206.566 620.322 206.537 620.317 206.501ZM620.623 206.134C620.591 206.166 620.562 206.195 620.532 206.228C620.503 206.079 620.295 206.012 620.623 206.134Z" fill="#E3C692"/>
<path fill-rule="evenodd" clip-rule="evenodd" d="M286.272 121.953C289.783 122.086 294.485 120.832 296.57 122.623C301.719 127.052 303.614 123.239 306.302 120.323C308.325 121.853 310.345 123.383 312.366 124.91C315.927 125.603 309.799 131.449 315.55 130.94C321.482 130.412 324.146 134.758 326.312 138.861C328.984 143.931 323.779 146.202 321.397 149.407C322.04 156.217 316.807 153.875 313.447 154.58C310.744 155.144 307.206 155.768 308.171 159.466C308.949 162.452 311.526 162.968 314.908 161.789C317.86 160.761 321.479 159.576 324.581 162.185C327.209 165.026 329.836 167.867 332.465 170.711C335.462 172.118 338.446 173.555 341.46 174.927C343.558 175.878 346.216 176.88 347.631 174.737C349.115 172.485 345.901 171.539 344.945 169.902C346.45 170.221 347.955 170.54 349.459 170.862C351.013 170.779 352.634 173.101 354.112 170.804C355.769 168.231 356.246 165.683 353.561 163.399C353.687 161.653 353.271 160.268 351.253 159.959C348.43 158.661 346.439 156.499 344.907 153.858C344.485 151.117 342.377 147.571 347.869 147.648C348.843 148.798 349.884 149.896 350.784 151.104C356.706 159.025 357.101 158.977 361.942 149.593C362.963 149.336 364.131 149.307 364.458 147.97C365.827 145.644 365.018 144.262 362.598 143.45C359.625 142.455 356.684 141.37 353.727 140.323C353.566 135.578 348.019 135.894 346.392 132.521C345.962 128.836 346.826 123.051 344.869 121.846C338.129 117.701 333.038 109.841 323.634 110.827C322.385 109.371 321.137 107.918 319.889 106.466H319.887C319.18 103.338 316.172 103.08 314.014 101.759C313.973 101.202 313.933 100.645 313.893 100.091C311.87 92.9886 305.45 93.8968 300.308 93.0785C298.124 92.7304 298.209 95.375 298.72 97.2079C292.998 91.2617 287.482 94.924 281.941 97.5686C281.804 97.2498 281.575 97.0274 281.253 96.9052C281.252 96.9052 281.252 96.9084 281.25 96.9084C281.25 96.9052 281.252 96.9052 281.252 96.9052C283.347 92.8144 280.401 92.4761 277.766 92.7112C270.166 93.3973 268.58 100.007 266.483 105.461C264.302 111.133 269.121 112.64 273.167 113.703C273.367 116.496 269.3 114.19 270.115 116.921C270.555 118.4 271.8 119.717 273.455 119.669C277.284 119.563 279.986 122.223 283.302 123.335C283.299 123.338 283.185 123.46 283.185 123.46C283.209 123.457 283.23 123.46 283.252 123.457C283.258 123.444 283.264 123.435 283.268 123.419C284.27 122.932 285.27 122.443 286.272 121.953H286.272ZM283.301 123.335H283.303L283.301 123.338V123.335Z" fill="#E3C692"/>
<path fill-rule="evenodd" clip-rule="evenodd" d="M170.904 80.6008C171.912 83.2516 174.415 83.1778 176.688 83.3128C178.809 83.4451 181.076 82.4207 182.159 85.7415C183.029 88.4056 185.895 88.2122 188.102 87.452C194.359 85.3035 200.46 82.9906 207.332 83.1645C210.903 83.2579 212.394 79.8566 212.4 76.6387C212.41 72.6864 209.827 73.3371 207.047 74.0326C204.638 74.6319 203.526 72.58 202.542 70.715C201.61 68.9468 201.687 65.4066 198.121 67.7709C196.072 69.1301 194.42 70.715 197.329 73.1052C198.54 74.1005 199.002 75.9624 197.388 76.9868C196.517 77.5406 194.784 77.5053 193.81 77.006C189.171 74.6319 184.657 72.0164 180.101 69.4845C180.104 69.4653 180.109 69.4426 180.112 69.4233C180.08 69.4296 180.046 69.4296 180.014 69.4362L180.094 69.517C176.828 70.3028 175.243 73.0764 173.401 75.4278C172.233 76.9161 169.972 78.1528 170.904 80.6011L170.904 80.6008Z" fill="#E3C692"/>
<path fill-rule="evenodd" clip-rule="evenodd" d="M745.094 524.61C744.06 529.197 740.429 531.926 738.41 535.704C737.993 536.133 737.575 536.561 737.158 536.992C736.602 537.408 736.04 537.823 735.48 538.245C728.345 540.165 726.243 544.836 728.721 551.494C729.75 554.261 729.215 556.883 727.793 558.667C724.132 563.27 724.652 567.896 726.437 572.824C725.82 576.805 726.91 580.297 731.123 580.961C735.57 581.663 737.989 578.658 738.896 574.457C741.03 571.207 741.785 567.526 742.209 563.747C750.512 544.282 751.457 532.672 745.093 524.61L745.094 524.61Z" fill="#E3C692"/>
<path fill-rule="evenodd" clip-rule="evenodd" d="M260.143 45.2323C255.97 46.7237 252.913 46.7367 257.602 52.3413C262.1 57.7207 265.564 53.343 269.367 53.9388C271.884 53.9741 272.487 49.9994 275.476 51.0238C275.418 51.5391 275.358 52.0481 275.3 52.5635C274.379 54.6892 273.457 56.8184 272.535 58.9445C273.301 61.6824 277.17 65.2579 270.446 65.8957C268.977 66.0342 267.586 67.5096 268.079 69.2781C268.723 71.5973 270.612 69.4747 271.878 70.0061C273.023 70.4861 274.321 70.5956 275.551 70.8695C282.197 74.5223 288.859 69.2588 295.511 70.908C299.332 74.3933 302.999 72.509 306.358 70.2863C311.471 66.904 302.221 67.033 304.701 64.1275C304.854 63.9505 304.893 63.6734 304.984 63.4415C309.259 63.8826 307.022 58.2007 310.805 57.566C319.299 56.1421 319.133 50.0155 317.585 43.4704C323.28 41.1383 331.301 43.8763 334.348 35.7751C335.83 34.3449 337.308 32.9115 338.789 31.475C343.738 29.159 349.629 28.6275 353.777 23.8797C351.627 23.5543 349.988 23.3094 347.423 22.9263C349.813 21.8309 351.34 21.1322 352.867 20.4364C355.52 20.3752 358.285 20.8615 360.52 18.8292C362.569 18.1462 365.88 17.5634 365.553 15.4856C365.067 12.3933 361.379 12.9698 358.863 12.4289C355.358 7.65518 350.981 8.59592 346.449 10.5285C343.492 6.8372 339.441 7.70662 335.55 7.90985C332.976 7.8906 330.402 7.87135 327.83 7.85494C324.442 4.80457 321.757 7.93857 318.823 8.87584C316.355 6.49859 313.59 7.99348 310.92 8.2734V8.27655C310.92 8.27655 310.92 8.2734 310.918 8.2734C306.081 8.62464 300.686 5.76424 296.652 10.7504C295.257 10.9211 293.86 11.095 292.466 11.2657H292.464C289.38 16.4649 284.692 15.0634 280.148 14.2615C275.018 20.0432 265.798 16.3358 259.409 23.6509C265.726 21.6763 266.368 26.5756 268.76 28.7885C270.879 30.7536 272.347 32.8538 275.547 32.3447C280.248 32.0904 284.439 35.4917 289.275 34.2679C289.295 34.6929 289.312 35.1215 289.33 35.5466L289.543 36.0685C285.178 36.0171 280.178 32.915 277.035 38.6907C276.589 38.6617 276.14 38.6424 275.691 38.6358C274.888 37.4634 274.088 36.291 273.288 35.1183C272.986 35.7145 272.687 36.3134 272.387 36.9092C269.857 33.7588 265.218 34.0328 262.655 31.1307C256.678 24.3694 256.1 24.276 249.712 30.7634C249.564 31.3141 249.416 31.8682 249.266 32.4157C247.546 34.6188 245.972 37.8787 247.206 39.763C249.976 43.9955 254.42 46.2731 260.144 45.2326L260.143 45.2323ZM298.608 27.7707C298.627 27.8029 298.645 27.832 298.664 27.8642C298.647 27.8802 298.627 27.8963 298.609 27.9124C298.606 27.8642 298.611 27.8159 298.608 27.7707ZM338.785 18.133C338.733 18.1298 338.68 18.1201 338.629 18.1137C338.643 18.0945 338.653 18.0718 338.668 18.0494C338.71 18.0752 338.743 18.1074 338.785 18.133H338.785Z" fill="#E3C692"/>
<path fill-rule="evenodd" clip-rule="evenodd" d="M1103.84 583.193C1103.84 583.193 1103.84 583.19 1103.84 583.19C1104.11 577.498 1099.47 574.751 1096.52 570.989C1095.97 566.308 1090.55 564.472 1089.98 559.805C1088.83 555.782 1084.64 555.189 1082.05 552.796C1080.94 549.732 1079.82 546.666 1078.72 543.602C1077.01 539.879 1079.79 533.888 1073.19 532.635C1072.48 531.124 1071.77 529.607 1071.06 528.093C1070.86 524.318 1070.11 520.746 1067.53 517.708C1064.67 521.012 1064.63 524.514 1065.28 528.144C1064.79 532.77 1064.29 537.386 1063.8 542.005C1062.56 543.922 1061.93 546.479 1058.98 546.618C1056.71 543.354 1053.75 541.148 1049.73 540.555C1048.77 539.985 1047.82 539.412 1046.86 538.839C1046.8 536.004 1042.53 534.98 1043.75 531.598C1044.24 530.438 1044.52 529.108 1045.27 528.145C1049.16 523.162 1048.99 520.952 1041.96 522.939C1041.27 523.129 1040.45 522.904 1039.7 522.795C1029.24 521.178 1027.17 522.099 1022.32 532.403C1021.01 535.189 1019.09 534.069 1017.39 534.603C1014.53 527.262 1011.15 531.743 1007.85 534.185C1005.59 536.41 1004.94 539.648 1002.31 541.896C1000.76 543.226 996.667 542.044 997.441 546.135C998.18 550.048 995.102 552.033 992.804 554.359C987.531 557.509 980.926 556.955 975.785 560.469C973.746 562.112 971.704 563.755 969.663 565.397C968.681 565.413 967.262 565.259 967.318 566.573C967.652 574.864 966.289 583.355 970.074 591.263C970.943 594.417 971.813 597.563 972.68 600.717C972.601 602.344 972.507 603.97 973.873 605.217H973.87C974.339 608.844 975.84 612.377 973.595 616.088C971.303 619.876 973.833 621.445 977.168 622.285C977.171 622.283 977.173 622.282 977.177 622.282L977.172 622.279C977.177 622.276 977.18 622.269 977.183 622.263C977.177 622.263 977.166 622.269 977.156 622.269C977.172 622.256 977.19 622.247 977.204 622.234C977.196 622.247 977.19 622.253 977.183 622.263C977.19 622.263 977.196 622.26 977.204 622.26C977.193 622.269 977.183 622.276 977.177 622.282C980.412 624.775 983.369 623.452 986.147 621.458C988.742 619.596 991.493 618.343 994.708 618.842C999.763 619.632 1002.96 617.27 1005.18 613.044C1007.72 612.464 1010.27 611.884 1012.81 611.305C1020.76 609.05 1028.65 605.51 1036.93 610.168C1038.26 612.555 1039.58 614.945 1040.91 617.338C1043.14 625.262 1045.78 622.25 1048.5 617.631C1048.92 618.607 1049.35 619.58 1049.79 620.556C1046.48 626.325 1052.2 622.205 1053.33 623.342C1057.02 627.069 1057.73 632.094 1060.42 636.133C1062.2 639.048 1064.78 640.569 1068.22 640.569C1071.36 643.155 1074.11 637.818 1075.49 639.181C1080.62 644.235 1083.3 639.429 1086.72 637.226C1092.97 636.401 1094.72 632.291 1094.4 626.686C1095.68 625.41 1096.02 623.829 1095.95 622.096C1097.42 619.165 1098.91 616.234 1100.38 613.289C1105.15 603.671 1107.13 593.737 1103.84 583.195H1103.84L1103.84 583.193Z" fill="#E3C692"/>
<path fill-rule="evenodd" clip-rule="evenodd" d="M615.769 45.8286C617.504 48.5956 618.887 51.704 621.934 53.4271C622.399 54.1229 622.868 54.8251 623.335 55.5273C623.949 57.1478 624.562 58.7679 625.177 60.3881C630.046 68.8241 632.819 69.0851 637.437 61.5766C638.075 60.5393 638.941 59.644 639.7 58.6808C640.794 56.1171 641.889 53.5562 642.982 50.9921C644.097 50.5089 645.211 50.0258 646.329 49.5395C647.405 52.0777 648.489 54.6096 649.569 57.1446C646.481 62.9039 652.709 59.8119 654.116 61.3061C655.843 63.1327 658.61 60.0918 659.785 57.9818C660.407 56.8672 658.407 56.1717 657.323 55.5661V55.5629C655.079 51.9877 651.267 50.2707 648.096 47.7902C645.997 44.6692 640.149 45.3455 640.228 40.0176C641.618 39.6505 643.01 39.2832 644.403 38.9127C644.946 44.5884 649.138 43.0263 652.551 43.0228C652.23 43.026 651.936 42.9745 651.657 42.8972C651.953 42.9392 652.254 42.9808 652.551 43.0228C657.915 47.9061 661.977 43.7508 666.112 40.9321C667.39 40.0592 669.782 39.3119 668.631 36.9574C667.819 35.3019 666.187 34.416 664.276 34.1712C657.637 33.3238 650.863 35.4821 644.169 32.9827C643.11 32.5866 637.516 33.9458 639.276 38.7903C636.229 40.7424 634.287 34.6319 630.853 37.7886C627.906 40.4976 624.756 41.8795 620.623 38.9033C618.708 37.5245 615.688 38.6647 613.871 40.9807C611.734 43.6994 614.864 44.3792 615.769 45.8286Z" fill="#E3C692"/>
<path fill-rule="evenodd" clip-rule="evenodd" d="M1172.68 652.409C1171.16 651.594 1169.7 650.86 1168.98 652.856C1166.06 660.948 1159.1 665.374 1153.27 670.891C1151.61 672.47 1148.94 674.49 1150.8 677.35C1152.23 679.547 1154.91 680.21 1157.91 680.729C1158.51 680.577 1159.96 680.645 1160.37 680.023C1165.6 671.999 1172 664.694 1175.77 655.781C1176.75 653.452 1174.21 653.227 1172.68 652.409Z" fill="#E3C692"/>
<path fill-rule="evenodd" clip-rule="evenodd" d="M760.235 111.278C761.647 120.027 768.241 115.881 774.279 117.234C771.467 113.888 769.597 111.658 767.719 109.429C766.588 102.166 770.08 96.4677 773.989 90.9113C782.932 84.6976 791.201 77.3507 801.966 74.181C803.902 73.6622 805.931 73.3693 807.74 72.5703C810.507 71.343 815.083 70.5926 813.084 66.2729C811.217 62.2272 807.246 63.2191 803.926 65.1615C802.649 65.9056 801.556 66.9555 800.38 67.8672C789.969 71.6131 778.247 71.9675 769.428 79.8242C764.756 86.801 760.726 94.1321 757.313 101.802C756.274 103.335 755.229 104.868 754.187 106.402C752.726 112.338 757.906 110.042 760.235 111.278Z" fill="#E3C692"/>
<path fill-rule="evenodd" clip-rule="evenodd" d="M1046.67 314.248C1044.84 317.224 1042.04 317.881 1038.83 317.44C1034.68 316.87 1032.14 319.36 1029.97 322.275C1026.58 326.833 1031.75 324.124 1032.52 325.167C1032.9 327 1031.86 330.267 1034.4 330.093C1036.29 329.964 1039.46 328.801 1040.22 326.263C1041.1 323.373 1038.91 322.919 1036.59 323.138C1041.49 319.527 1042.02 324.439 1043.6 327.416C1045.93 325.187 1047.86 323.347 1049.79 321.505C1059.34 320.732 1068.04 306.179 1065.13 295.691C1064.65 293.945 1065.2 290.946 1062.11 291.31C1059.71 291.591 1058.92 293.926 1059.08 296.02C1059.44 300.974 1057.68 304.939 1054.46 308.595C1052.25 311.114 1047.86 310.457 1046.67 314.248H1046.67Z" fill="#E3C692"/>
<path fill-rule="evenodd" clip-rule="evenodd" d="M224.14 101.322C225.451 105.97 231.295 105.777 233.528 109.285C236.762 114.371 239.777 110.728 242.194 109.127C245.038 107.242 245.48 104.385 242.605 101.431C241.207 99.998 240.819 98.014 240.799 95.4852C240.756 90.0317 235.842 93.327 233.128 92.7826C230.912 92.3348 226.991 94.3801 228.218 95.762C236.992 105.644 224.726 98.8285 224.14 101.322L224.14 101.322Z" fill="#E3C692"/>
<path fill-rule="evenodd" clip-rule="evenodd" d="M383.218 238.929C383.218 238.967 383.226 239.006 383.227 239.048C383.266 238.967 383.306 238.89 383.345 238.813L383.218 238.929Z" fill="#E3C692"/>
<path fill-rule="evenodd" clip-rule="evenodd" d="M391.239 262.085C392.444 262.23 393.125 265.754 395.135 263.551C396.33 262.24 395.989 260.059 394.274 258.822C392.212 257.337 393.821 254.003 392.489 253.381C386.229 250.457 383.422 245.677 383.227 239.048C379.846 245.812 376.042 252.409 373.734 260.436C380.347 259.541 385.723 261.415 391.239 262.085Z" fill="#E3C692"/>
<path fill-rule="evenodd" clip-rule="evenodd" d="M1084.66 498.088C1079.57 494.944 1077.78 488.012 1071.34 486.495C1066.02 484.495 1060.71 482.491 1055.4 480.491C1051.45 475.095 1049.44 480.594 1046.7 482.031H1046.7C1044.03 484.259 1041.37 485.86 1038.73 481.982C1039.11 478.897 1039.26 476.207 1035.88 474.139C1032.22 471.906 1029.46 474.045 1027.91 476.049C1025.7 478.89 1030.27 478.764 1031.13 480.507C1031.61 481.483 1032.1 482.459 1032.59 483.435C1033.44 487.967 1035.93 489.474 1045.19 491.033C1047.78 492.631 1050.38 494.229 1052.97 495.82C1053.17 501.312 1051.4 508.124 1060.8 507.454C1061.2 507.425 1061.63 507.928 1062.06 508.186C1068.76 513.877 1070.06 507.052 1072.8 503.554C1075.09 503.144 1077.06 504.059 1079.01 505.058C1080.96 507.197 1082.92 509.342 1084.87 511.484C1087.06 516.193 1091.9 513.806 1096.12 516.837C1094.09 512.16 1091.7 510.311 1088.5 509.387H1088.49L1088.5 509.384C1087.44 506.469 1086.39 503.554 1083.83 501.531C1084.14 500.339 1084.97 498.281 1084.66 498.087L1084.66 498.088Z" fill="#E3C692"/>
<path fill-rule="evenodd" clip-rule="evenodd" d="M1055.43 81.7924C1060.62 81.129 1065.82 80.5812 1070.98 79.7566C1073.81 79.3091 1076.44 76.5453 1074.26 74.7799C1071.23 72.3383 1066.54 69.1109 1062.61 72.0742C1060.27 73.8458 1059.59 73.8042 1058.01 72.1063C1055.96 69.9061 1053.69 69.465 1051.29 71.4364C1049.07 73.2626 1048.59 75.656 1049.57 78.3198C1050.58 81.0287 1052.5 82.3595 1055.43 81.7924Z" fill="#E3C692"/>
<path fill-rule="evenodd" clip-rule="evenodd" d="M450.805 494.296C449.315 494.116 447.692 492.438 446.727 491.04C443.155 485.86 438.338 484.868 432.628 486.279C427.009 485.541 423.814 480.736 419.211 478.323C417.166 477.253 414.928 475.008 412.45 477.772C410.428 476.429 408.404 475.086 406.381 473.746C405.828 472.329 405.276 470.918 404.722 469.503C400.15 452.406 398 450.525 381.933 449.558C380.256 448.083 378.578 446.608 376.901 445.132C375.756 440.136 369.624 440.075 367.708 435.843L367.706 435.846V435.843C366.638 433.243 363.862 433.482 361.905 432.357C361.299 428.524 359.346 429.085 357.02 430.853C350.042 432.895 344.522 428.965 338.674 426.376C336.605 424.826 334.595 427.918 332.525 426.459C332.261 425.145 332.6 422.594 330.327 423.799C323.717 427.297 315.461 429.136 313.859 438.355C310.775 440.069 309.884 436.31 307.662 435.871C305.337 433.23 302.939 434.882 300.991 436.155C297.937 438.155 295.95 436.87 293.949 434.718C292.965 433.99 291.981 433.266 290.995 432.538C290.385 430.541 289.775 428.544 289.164 426.546C289.366 423.538 289.454 420.52 289.788 417.524C290.619 410.119 288.781 408.163 281.277 408.086C277.902 408.051 274.259 409.951 271.163 407.04C275.167 403.081 273.911 397.457 275.672 392.789C276.718 390.29 279.196 387.391 277.418 385.149C275.506 382.736 272.01 382.681 269.098 384.698V384.701C263.983 387.339 265.278 393.807 261.583 397.293C261.1 397.193 260.618 397.199 260.137 397.309C251.106 400.179 246.747 394.529 243.221 387.79C240.245 382.105 241.153 375.846 241.251 369.742C241.339 368.167 241.425 366.595 241.512 365.027C241.744 360.63 240.382 355.206 245.595 353.141C248.999 351.791 250.453 349.063 252.812 346.992C254.141 346.914 255.471 346.834 256.8 346.753C260.802 346.892 266.566 351.343 268.056 348.547C271.429 342.218 276.061 345.213 280.266 344.659C282.123 346.347 284.019 347.719 286.352 345.384H286.354C287.388 345.686 288.423 345.989 289.457 346.292C290.053 347.887 290.649 349.478 291.243 351.066C291.177 355.546 292.269 359.673 295.302 363.055C296.663 364.572 296.45 368.534 299.51 367.265C302.047 366.211 301.928 362.907 301.253 360.388C299.744 354.777 297.98 349.233 296.319 343.66C296.821 339.383 298.853 335.84 301.609 332.641C307.524 328.093 316.332 325.906 315.396 315.759C315.424 315.25 315.451 314.741 315.478 314.229C316.361 312.599 317.242 310.973 318.125 309.343C320.043 303.274 321.806 297.125 327.046 292.857C327.049 292.854 327.052 292.851 327.055 292.851C333.734 293.028 335.917 289.749 334.242 283.506C335.698 281.789 337.155 280.079 338.611 278.368C340.951 276.423 345.385 278.636 346.561 274.371C348.092 274.313 349.626 274.255 351.157 274.2C349.94 276.41 348.701 279.025 351.462 280.569C353.607 281.767 354.562 279.109 355.724 277.698C359.307 275.637 364.105 275.502 366.197 271.079C371.143 270.589 371.468 268.406 368.593 264.949C365.976 265.819 366.799 270.122 363.291 269.829C363.615 269.968 363.939 270.106 364.263 270.248C363.907 270.184 363.565 270.083 363.291 269.829C362.249 269.713 361.209 269.601 360.169 269.485C355.851 266.624 353.88 262.392 353.118 257.45C354.896 256.564 357.139 255.74 356.658 253.317C356.134 250.676 353.628 251.324 351.712 251.23C349.969 251.143 348.227 251.101 346.484 251.04C346.674 247.223 349.76 246.276 352.487 244.975C355.411 245.033 358.338 245.088 361.263 245.146C366.218 247.017 370.535 246.788 374.389 242.395C376.555 239.924 379.81 238.758 383.279 238.813C385.26 235.218 386.484 231.621 383.288 227.994C382.995 226.232 383.272 223.867 380.185 225.069C379.223 224.998 378.264 224.93 377.302 224.863C377.128 223.352 380.48 220.981 378.038 220.83C371.549 220.424 370.177 213.563 365.022 211.898C364.93 210.084 364.84 208.274 364.748 206.46C364.073 201.983 360.254 198.965 359.351 194.359C358.988 192.513 357.267 188.464 354.184 188.58C351.171 188.693 351.707 192.59 350.306 194.587C349.431 195.837 348.523 197.061 347.63 198.295C341.336 199.393 339.479 195.309 338.265 190.361C337.466 187.111 337.738 182.93 332.561 183.069C331.024 181.526 330.531 178.955 327.972 178.421C326.4 176.633 310.905 172.307 309.066 173.196C307.864 173.773 306.474 174.971 307.036 176.066C309.246 180.363 305.695 185.694 309.63 189.572C304.936 195.093 306.441 200.192 310.652 205.133C310.966 205.504 311.076 206.051 311.28 206.515C313.265 212.439 310.031 216.44 306.23 220.237C300.358 224.989 307.045 229.53 306.469 234.191C302.143 241.655 300.016 241.793 295.869 234.655C294.869 232.935 293.748 230.774 293.949 228.954C294.994 219.426 289.929 216.794 281.66 217.361C280.464 215.744 278.877 214.713 276.927 214.227C270.998 209.73 264.451 206.828 256.917 206.467C257.632 204.918 257.344 203.407 256.716 201.916C256.429 201.317 256.142 200.721 255.856 200.122C255.899 196.479 251.657 198.047 250.575 195.776C250.33 180.431 258.689 170.552 271.262 163.446C273.791 162.016 276.743 160.27 276.529 157.558C276.228 153.715 271.674 156.437 269.693 154.565C275.963 156.44 277.775 150.297 281.675 147.91C289.462 150.281 294.699 147.411 295.868 140.125C294.777 138.27 293.62 136.434 293.894 134.13C296.803 131.65 297.55 129.382 293.664 126.979C290.425 124.973 287.283 122.975 283.251 123.458C282.04 126.042 282.672 128.487 283.867 130.893C281.022 132.504 279.652 134.919 279.852 138.198C278.28 139.087 278.017 142.531 275.231 140.895C273.459 139.857 271.891 138.041 272.699 135.805C273.524 133.522 274.613 131.415 271.933 129.833C268.525 127.82 267.442 131.544 265.824 132.645C260.489 127.279 258.955 120.218 256.252 113.744C255.031 110.816 253.05 108.628 250.209 108.593C247.233 108.558 244.959 112.198 245.122 114.021C245.397 117.094 242.191 120.437 245.685 123.307C251.869 128.386 252.474 133.453 247.502 138.508H247.5C245.812 136.804 246.413 134.626 246.286 132.6C247.997 127.92 244.112 126.113 241.4 124.447C237.676 122.157 237.575 127.343 235.405 128.638C234.07 129.434 237.177 130.59 238.436 131.434C238.478 132.317 238.521 133.199 238.565 134.082C237.069 137.309 234.87 138.585 231.006 138.691C222.306 138.92 214.996 136.694 209.502 129.682H209.5C208.903 129.076 208.304 128.474 207.708 127.868H207.705H207.706C211.338 125.703 212.897 130.12 215.661 130.377C218.958 130.686 225.646 132.96 224.337 128.213C222.847 122.801 227.185 124.424 228.288 122.347C225.674 120.772 223.24 119.448 220.958 117.899C216.767 115.057 212.411 102.953 213.83 98.4044C217.543 94.9706 215.646 92.2165 211.91 92.9509C208.535 93.6146 204.277 95.5762 203.346 100.237C203.357 101.268 203.369 102.296 203.38 103.326C202.802 103.326 202.224 103.33 201.647 103.33L201.218 103.481C199.736 100.981 198.234 98.3918 195.266 101.977C193.927 103.594 192.927 102.908 191.492 102.009C186.648 98.9813 181.08 98.0472 175.588 96.9455C178.846 90.4196 173.106 90.4711 169.737 89.6175C167.144 88.9601 164.13 89.9813 161.658 88.1712C157.388 85.0466 152.652 87.4721 148.432 87.8168C144.976 88.1001 149.159 92.5132 147.743 94.9482C146.852 96.4781 146.498 98.4495 145.322 99.6639C138.028 107.195 146.49 109.672 150.064 112.522C154.24 115.86 158.042 112.029 160.898 108.912C162.36 107.311 162.639 104.695 164.626 103.287C165.217 103.89 165.807 104.495 166.398 105.098C166.084 114.156 169.358 117.821 177.98 118.408C180.07 118.549 182.591 117.693 184.125 120.092H184.124C181.597 120.179 179.044 120.082 176.551 120.421C174.865 120.653 172.826 121.159 172.591 123.3C172.369 125.339 174.039 126.972 175.578 127.291C184.164 129.079 192.063 135.747 201.586 131.179C201.641 131.698 201.697 132.216 201.75 132.738C202.296 135.846 206.759 138.263 203.039 142.482C200.435 137.07 195.661 136.813 190.676 137.335C187.916 137.618 185.198 138.352 182.436 138.562C181.103 138.665 179.241 138.585 179.758 136.175C180.845 131.121 180.829 131.118 175.469 131.021C167.785 132.19 162.865 124.46 155.44 124.798C152.866 123.925 150.166 127.31 147.376 123.996C145.553 121.825 144.322 124.966 142.989 126.058H142.987C138.985 125.13 137.736 119.799 130.81 122.179C124.044 124.502 116.585 126.573 109.287 128.164C104.582 133.721 100.32 129.334 96.0745 127.446C90.9353 125.162 86.5738 120.06 80.035 123.407C76.4112 122.988 72.7874 122.576 69.1621 122.157H69.1605C66.6898 121.31 64.5511 119.187 61.5973 120.163C58.7903 119.332 55.548 118.572 53.0726 118.359C45.7446 117.734 38.426 110.068 30.8566 117.477C23.9262 117.177 20.0127 121.996 15.7944 126.322C13.9214 128.245 12.7973 131.137 9.38939 131.096C7.40188 131.073 5.14392 130.88 4.67024 133.692C4.18393 136.562 6.62556 136.729 8.30696 137.699C9.60335 138.443 10.705 139.529 11.8954 140.46C12.2706 144.093 15.6287 144.873 17.8611 146.744C18.7936 147.527 19.9644 148.412 19.4475 149.862C18.8984 151.395 16.9125 151.418 16.3151 150.9C9.38623 144.86 5.2651 152.314 0 154.13V155.67C4.05044 157.799 5.84482 164.492 12.3047 161.754C12.3836 161.639 12.466 161.548 12.548 161.455C12.5076 161.6 12.4353 161.712 12.3047 161.754C15.7224 164.65 18.7453 162.048 21.8216 160.553C22.4155 165.466 20.1505 169.399 15.0266 172.352C5.28593 174.784 5.56301 176.098 8.58277 185.237C10.7571 191.82 16.4343 191.038 20.0887 194.114C20.0146 196.343 19.1916 198.769 23.1391 198.63C28.2202 198.45 33.3178 198.826 38.409 198.962H38.4106C37.3284 206.177 29.8183 207.659 26.2188 212.632C23.5743 215.154 18.2385 214.429 17.074 220.112C22.4742 218.636 27.211 217.809 30.8477 214.285H30.8509C38.0372 208.1 47.3237 203.7 48.717 192.632C48.9569 190.716 50.371 188.96 52.2764 187.936C53.6422 188.619 53.8063 189.923 53.9884 191.218C53.9307 194.584 54.2188 197.419 58.4835 194.149C61.7482 192.304 65.9084 191.347 66.1401 186.474C67.095 184.647 69.0601 184.412 70.661 183.603C75.3076 189.975 82.0446 190.99 89.2325 190.845C91.0846 192.014 93.0494 192.848 95.2897 192.842V192.845C98.4546 194.723 101.157 197.1 103.194 200.189C104.65 201.803 106.105 203.416 107.559 205.03C108.092 205.61 108.627 206.19 109.16 206.77C109.292 208.773 110.4 209.675 112.367 209.601C112.304 212.484 113.919 211.727 115.499 211.047C116.42 212.117 117.34 213.19 118.261 214.259C118.659 216.642 117.739 219.535 120.485 220.965C120.888 221.175 122.215 219.609 123.114 218.865C124.283 220.669 127.029 220.034 127.875 223.059C130.266 231.608 135.897 238.401 141.56 245.059C141.552 245.475 141.571 245.887 141.619 246.302C140.297 246.824 137.211 246.695 139.566 249.099C141.532 251.099 142.768 254.194 146.05 254.748C147.245 255.85 148.975 256.671 148.144 258.814C148.002 262.566 151.612 265.394 150.73 269.327C147.482 275.889 148.613 282.718 149.503 289.534C149.402 292.127 149.299 294.719 149.197 297.312C150.233 301.477 151.792 305.349 155.312 308.11C155.688 312.23 157.04 315.94 159.875 319.036C160.078 319.931 160.279 320.823 160.482 321.719C161.241 325.813 164.943 326.299 167.865 327.742C169.342 328.899 170.82 330.055 172.3 331.215C174.373 336.849 176.448 342.482 178.519 348.113C180.468 351.186 183.462 353.579 184.451 357.27H184.449C187.029 361.809 190.949 365.536 192.528 370.677C193.523 373.95 195.825 375.805 200.297 377.915C197.588 373.65 195.797 370.825 194.005 368.003C193.924 362.485 189.613 358.733 188.094 353.814C187.781 350.419 184.053 349.456 182.964 346.612C182.165 344.157 181.185 341.732 181.682 339.055C185.275 340.124 187.678 342.179 188.574 346.077C190.061 352.551 194.81 356.674 199.748 360.578H199.749C201.18 364.064 201.146 368.519 205.865 369.836C207.522 371.817 209.179 373.804 210.838 375.785C212.375 378.887 213.913 381.989 215.449 385.091C211.784 394.178 218.78 396.258 224.645 399.08C229.793 403.045 235.599 405.729 241.701 407.835C245.586 411.539 248.586 406.985 252.049 406.724H252.05C257.055 408.699 258.382 415.733 264.692 415.911C267.086 417.354 269.461 418.842 272.33 419.174C275.56 418.936 276.969 421.419 278.684 423.439C279.147 424.962 280.147 426.003 281.577 426.656L281.554 426.676C281.325 432.01 284.611 434.545 289.09 436.126C289.662 437.064 290.234 438.001 290.805 438.942C291.836 441.122 294.643 440.011 295.938 441.725C299.214 446.051 301.197 445.699 302.165 440.172C302.335 439.189 303.904 438.458 304.827 437.608C308.992 441.792 310.82 446.911 310.863 452.741C310.964 453.781 311.064 454.822 311.164 455.865C311.039 457.833 310.913 459.801 310.789 461.776C307.188 463.19 306.052 466.482 304.794 469.68C300.673 471.41 301.203 475.614 299.901 478.851C298.056 480.571 298.661 482.282 299.908 483.999C300.453 484.395 300.999 484.781 301.544 485.171H301.545C300.445 490.199 294.399 494.709 299.526 500.391C304.045 505.393 306.483 511.413 308.902 517.501C309.961 519.663 311.017 521.821 312.074 523.973C313.167 527.541 314.261 531.107 315.354 534.673C316.136 539.096 319.672 540.474 323.245 541.818C326.063 544.256 329.012 546.491 332.578 547.76C333.141 548.398 333.705 549.033 334.269 549.667C335.123 552.869 335.976 556.071 336.83 559.272C336.831 559.276 336.831 559.279 336.833 559.282C336.889 562.255 336.945 565.228 337.002 568.201C334.678 573.146 335.966 578.422 335.609 583.544C335.238 585.621 334.868 587.699 334.499 589.777C334.201 591.268 333.906 592.759 333.608 594.251C331.806 596.522 332.499 599.24 332.252 601.792C332.064 602.197 331.925 602.593 331.859 602.983C330.036 609.252 331.95 615.713 331.212 622.036C331.135 623.064 331.056 624.095 330.977 625.129C329.689 627.606 327.745 629.819 327.866 632.866C322.419 638.786 326.738 646.324 324.566 652.789C322.562 655.369 324.938 657.843 324.781 660.381C328.117 658.11 328.993 660.436 327.754 662.803C324.756 668.536 330.266 677.778 320.431 680.583C323.114 685.869 318.624 690.872 319.817 696.103C320.565 700.145 319.368 704.555 322.101 708.227C322.84 709.819 324.203 711.41 323.46 713.213C320.92 719.391 324.979 721.849 329.379 724.207C330.919 725.032 332.436 725.904 333.964 726.755C335.322 727.808 337.136 728.588 337.955 729.96C340.982 735.024 345.2 733.365 348.21 731.071C352.096 728.105 347.451 726.217 346.077 724.017C345.315 722.796 344.373 721.692 343.512 720.529C344.974 714.911 338.585 710.93 340.326 705.257C344.711 700.483 349.677 696.07 350.956 689.364C351.091 689.309 351.203 689.235 351.342 689.187C351.613 689.09 351.445 688.314 351.183 687.831C350.877 686.923 350.221 686.713 349.358 686.926C345 682.616 345.043 678.78 350.787 675.878C352.805 674.859 353.971 673.655 353.705 671.345C353.416 667.155 360.853 663.199 354.095 658.802C354.02 657.833 353.948 656.866 353.874 655.897C359.598 655.27 363.219 651.661 364.737 645.07L364.502 644.703C364.544 644.677 364.581 644.645 364.621 644.62C364.66 644.771 364.699 644.919 364.737 645.07C365.741 644.999 366.744 644.897 367.749 644.855C381.397 644.339 385.267 638.19 379.403 626.353C378.905 625.351 377.161 624.861 378.087 623.189C379.304 623.305 380.517 623.424 381.732 623.537L382.365 623.966L383.128 623.937C389.401 627.676 393.302 625.692 395.223 618.928C396.899 615.465 399.43 612.537 401.442 609.345C406.359 601.547 412.439 593.912 410.677 583.624C412.825 581.038 414.975 578.451 417.125 575.865C422.841 574.895 426.385 568.659 432.896 569.374C433.7 569.461 435.248 567.94 435.5 566.929C436.86 561.501 440.092 556.905 441.88 551.593C444.54 543.695 443.555 535.723 444.713 527.863C448.581 525.309 450.512 521.308 452.525 517.372C454.836 515.301 456.536 512.885 456.93 509.715C457.314 509.287 457.405 508.81 457.201 508.279C457.571 507.822 457.716 507.329 457.644 506.8C459.388 500.822 460.003 495.436 450.804 494.296L450.805 494.296ZM300.13 323.512C300.114 323.509 300.1 323.503 300.085 323.496C300.097 323.486 300.111 323.473 300.124 323.464C300.127 323.48 300.127 323.496 300.13 323.512ZM283.3 272.676C281.941 273.372 280.269 273.736 280.146 275.714C279.542 277.846 278.881 279.982 279.374 282.14C278.985 282.501 278.647 282.922 278.355 283.393C277.283 285.371 276.827 287.403 277.45 289.529C277.01 289.655 276.745 290.073 276.545 290.605C275.612 289.748 274.682 288.891 273.752 288.035C273.282 283.116 276.592 278.564 275.503 273.588C275.506 273.588 275.508 273.585 275.509 273.585C277.241 272.666 278.792 271.436 280.612 270.679C281.604 270.234 282.659 270.028 283.714 269.822C284.005 270.086 284.25 270.454 284.422 270.985C284.049 271.552 283.674 272.116 283.3 272.676ZM282.679 259.318C282.841 259.264 282.97 259.177 283.123 259.112C282.132 261.722 282.86 264.121 284.036 266.457C277.691 266.457 271.53 261.219 264.93 265.783C264.334 266.193 262.647 264.792 261.506 265.977C261.137 265.928 260.767 265.902 260.395 265.906V265.902C260.512 265.732 260.549 265.571 260.525 265.409C262.219 264.356 264.635 263.892 264.701 261.515C268.704 260.017 272.917 258.867 275.479 254.986C275.504 254.85 275.528 254.715 275.552 254.58C276.391 258.352 279.757 258.523 282.679 259.318ZM297.866 270.65C298.117 270.534 298.338 270.38 298.56 270.225C299.301 273.691 293.427 275.037 295.347 278.874C294.112 279 293.068 279.589 292.037 280.208C291.288 279.141 289.663 278.649 289.398 277.264C291.561 273.846 290.055 271.991 286.706 270.911C286.702 270.257 286.698 269.6 286.695 268.946C286.775 268.892 286.859 268.843 286.937 268.785C287.256 268.946 287.583 269.098 287.916 269.239C291.145 270.344 294.324 271.748 297.866 270.65H297.866ZM107.824 135.656C107.799 135.653 107.775 135.653 107.749 135.653C107.77 135.64 107.787 135.627 107.808 135.614C107.815 135.627 107.82 135.644 107.824 135.656V135.656ZM270.487 393.813C270.482 393.784 270.482 393.755 270.477 393.723C270.494 393.733 270.512 393.739 270.53 393.746C270.516 393.772 270.501 393.788 270.487 393.813ZM335.513 614.399C335.521 614.409 335.532 614.415 335.54 614.425C335.534 614.447 335.523 614.473 335.516 614.496C335.494 614.464 335.468 614.438 335.445 614.409C335.469 614.406 335.487 614.399 335.513 614.399ZM318.473 461.921C318.467 461.978 318.459 462.04 318.452 462.095C318.319 462.098 318.185 462.104 318.047 462.088C318.209 462.043 318.349 461.985 318.473 461.921V461.921Z" fill="#E3C692"/>
<path fill-rule="evenodd" clip-rule="evenodd" d="M252.092 105.706C255.145 100.262 263.274 99.5759 264.504 91.5587C262.243 91.156 260.148 91.1046 258.302 90.3958C253.83 88.6756 250.14 89.6195 247.817 93.6652C245.556 97.608 248.201 101.441 249.159 105.229C249.594 106.959 251.497 106.759 252.092 105.706Z" fill="#E3C692"/>
<path fill-rule="evenodd" clip-rule="evenodd" d="M295.833 86.7238C298.684 86.6916 301.567 86.1955 301.779 82.3139C301.994 78.4711 299.766 76.8992 296.379 76.2453C291.027 75.2049 286.392 77.4016 281.694 79.3636C277.037 80.9033 272.63 78.2972 268.051 78.5358C268.174 75.3889 264.493 76.31 263.538 74.3162C264.691 74.0811 266.664 74.4355 266.65 73.0858C266.627 71.3659 264.748 71.0531 263.155 71.0629C261.719 70.2544 260.525 68.5342 258.53 69.829C254.067 70.1834 251.778 65.6384 247.752 65.0489C246.291 64.8331 244.539 64.5368 243.742 66.1475C242.849 67.9513 244.542 68.7371 245.682 69.6456C248.581 71.9582 252 72.4417 255.552 72.477C259.15 76.4097 255.658 84.3983 263.294 86.0219C269.422 86.1217 275.552 86.228 281.68 86.3277C286.397 86.4792 291.118 86.7787 295.834 86.7241L295.833 86.7238Z" fill="#E3C692"/>
<path fill-rule="evenodd" clip-rule="evenodd" d="M172.297 70.9951C175.476 71.021 176.132 66.3407 175.785 63.4866C175.368 60.0237 172.178 61.9598 170.248 61.9822C162.067 62.0788 159.029 70.0477 152.054 72.5863C160.147 78.9158 165.66 70.9434 172.297 70.9948L172.297 70.9951Z" fill="#E3C692"/>
<path fill-rule="evenodd" clip-rule="evenodd" d="M920.718 55.553C926.2 54.5447 931.672 53.4721 937.115 52.2546C938.408 51.9646 939.126 50.7793 939.115 49.0237C938.202 45.1907 934.23 44.7782 931.421 42.8551C928.432 40.8098 926.234 42.2334 924.955 44.3434C922.911 47.716 918.972 50.0481 919.02 54.5608C919.02 54.9152 920.204 55.6464 920.718 55.553Z" fill="#E3C692"/>
<path fill-rule="evenodd" clip-rule="evenodd" d="M383.345 238.813H383.279C383.258 238.851 383.239 238.887 383.218 238.925L383.345 238.813Z" fill="#E3C692"/>
<path fill-rule="evenodd" clip-rule="evenodd" d="M973.972 507.606C966.665 498.48 955.209 501.937 946.873 496.564C945.267 495.527 941.81 496.142 940.933 498.487C940.129 500.629 942.8 502.71 944.291 502.9C954.198 504.159 963.676 508.482 973.972 507.606Z" fill="#E3C692"/>
<path fill-rule="evenodd" clip-rule="evenodd" d="M227.792 69.4459C225.562 67.7708 225.449 69.9742 224.753 71.1046C224.511 72.7153 224.439 74.2743 222.233 72.3511C220.831 71.127 219.303 67.4067 217.156 70.731C215.541 73.2338 218.88 74.3226 220.583 75.6817C224.001 78.4099 230.949 75.25 231.772 82.3657C231.778 82.4301 232.719 82.3559 233.218 82.4042C239.825 83.0227 238.428 77.7144 239.206 74.1679C240.215 69.5681 237.46 69.1622 233.87 69.5583C231.872 69.7804 229.82 69.5005 227.792 69.4456L227.792 69.4459Z" fill="#E3C692"/>
<path fill-rule="evenodd" clip-rule="evenodd" d="M1066.49 262.762C1066.38 263.941 1067.18 264.263 1068.5 263.771C1070.36 263.084 1070.63 262.35 1069.87 260.463C1068.03 255.834 1066.49 251.089 1073.16 248.715C1074.61 248.197 1073.84 247.037 1073.48 246.248C1070.28 239.081 1070.79 231.26 1069.47 223.768C1069.47 222.592 1069.87 220.72 1067.96 221.274C1066.19 221.786 1066.92 223.777 1067 225.22C1066.75 225.664 1066.33 226.09 1066.27 226.557C1064.79 238.627 1067.63 250.677 1066.49 262.762Z" fill="#E3C692"/>
<path fill-rule="evenodd" clip-rule="evenodd" d="M299.184 166.057C295.65 159.109 288.427 156.938 282.614 153.018C280.796 151.79 280.06 153.649 280.034 155.388C278.074 157.492 279.099 160.262 278.414 162.652C277.43 166.095 278.654 168.012 281.804 168.279C282.537 168.72 283.571 168.775 285.032 168.102C288.981 162.291 294.895 169.172 299.184 166.057Z" fill="#E3C692"/>
<path fill-rule="evenodd" clip-rule="evenodd" d="M988.507 493.984C988.993 496.815 990.823 494.061 991.596 492.696C992.382 491.723 993.169 490.75 993.958 489.774C997.999 493.117 999.255 491.14 997.676 487.294C995.653 482.391 995.939 478.465 1000.56 475.176C996.74 473.62 994.326 479.109 990.961 475.878C990.426 468.389 996.302 470.241 999.866 470.551C1003.39 470.86 1005.58 471.082 1005.85 466.704C1003.36 466.994 1001.17 468.711 998.558 467.661C990.381 464.372 988.824 469.481 988.337 475.856C983.235 481.879 987.489 488.102 988.507 493.984Z" fill="#E3C692"/>
<path fill-rule="evenodd" clip-rule="evenodd" d="M315.899 391.22C317.55 391.069 319.828 391.906 320.262 389.403C320.572 387.629 318.971 386.769 317.5 386.234C313.884 384.913 310.997 382.072 307.635 380.71C301.402 378.178 294.693 372.825 287.262 380.317C296.134 380.262 303.607 382.227 309.475 388.028C311.412 389.942 313.102 391.481 315.899 391.221L315.899 391.22Z" fill="#E3C692"/>
<path fill-rule="evenodd" clip-rule="evenodd" d="M221.519 54.3807C224.259 53.8461 227.547 54.8768 229.93 57.1735C230.817 58.0303 231.988 59.0257 233.233 58.0044C234.818 56.7065 233.455 55.4341 233.027 54.0136C230.394 45.2652 221.624 47.8933 216.475 44.5725C214.349 44.8818 211.405 45.2166 213.223 47.3587C215.455 49.9903 215.411 55.5726 221.519 54.3807Z" fill="#E3C692"/>
<path fill-rule="evenodd" clip-rule="evenodd" d="M953.47 474.319C954.57 476.377 955.765 478.271 955.814 480.658C955.881 483.944 957.762 484.424 960.447 483.679C962.562 488.102 967.511 483.718 970.143 486.862C973.812 491.239 976.588 488.015 976.941 484.839C977.427 480.475 980.391 477.06 980.463 472.75C981.157 471.285 981.847 469.819 982.541 468.353C983.683 468.289 984.984 467.432 984.522 466.634C981.437 461.293 979.063 456.699 985.311 451.246C987.738 449.133 980.457 448.131 980.961 444.137C981.094 443.045 978.242 443.319 977.923 444.35C975.929 450.84 967.638 451.961 965.989 458.626C963.878 459.85 960.336 459.225 960.254 463.068C958.835 464.082 958.856 466.675 956.675 466.724C949.836 466.865 951.589 470.795 953.47 474.319V474.319Z" fill="#E3C692"/>
<path fill-rule="evenodd" clip-rule="evenodd" d="M1079.75 651.558C1079.01 651.877 1074.49 648.36 1075.1 653.388C1075.63 657.843 1076.78 664.433 1082.34 664.61C1086.51 664.736 1087.55 658.799 1087.92 654.86C1088.45 649.303 1084.26 650.924 1079.75 651.558Z" fill="#E3C692"/>
<path fill-rule="evenodd" clip-rule="evenodd" d="M1187.02 636.094C1183.36 637.656 1182.91 634.937 1181.79 632.895C1178.78 630.985 1177.48 627.87 1176.1 624.807C1175.24 623.654 1173.84 622.887 1173.27 624.488C1172.62 626.34 1174.27 627.629 1175.88 628.521C1176.51 632.509 1178.53 636.316 1177.5 640.526C1177.4 642.224 1173.06 642.459 1175.89 645.171C1177.87 646.688 1180.11 648.096 1178.53 651.175C1177.69 654.461 1179.15 655.272 1181.1 652.808C1183 650.392 1184.99 647.69 1185.4 644.356C1187.88 643.406 1190.2 642.337 1189.64 638.984C1190.37 636.545 1189.05 635.234 1187.02 636.094V636.094Z" fill="#E3C692"/>
<path fill-rule="evenodd" clip-rule="evenodd" d="M529.636 155.943C529.608 152.834 527.693 149.04 523.422 148.26C516.136 147.12 509.288 149.793 502.239 150.692L502.234 150.695L502.237 150.692C501.735 149.172 502.276 146.769 499.971 146.685C498.802 146.643 497.07 147.742 496.51 148.808C495.824 150.118 497.383 150.785 498.572 151.198C500.617 152.254 493.204 156.287 500.031 155.833C499.895 158.983 500.693 161.489 504.321 162.034C509.95 165.419 515.698 166.65 521.709 162.978C525.245 161.56 529.675 160.117 529.636 155.943Z" fill="#E3C692"/>
<path fill-rule="evenodd" clip-rule="evenodd" d="M488.961 117.035C490.086 115.972 490.531 114.567 490.856 113.111C494.364 114.918 496.535 120.101 501.776 117.524C506.187 111.246 500.227 108.698 497.292 105.062C500.072 103.786 500.764 101.547 500.217 98.7322C500.291 97.74 500.371 96.7481 500.447 95.756C506.551 95.2697 506.495 88.5633 510.429 85.8831C503.28 83.7217 510.731 79.9724 509.482 77.17C509.27 74.2452 509.281 71.169 505.213 70.8503C504.443 69.4488 501.992 68.183 504.868 66.4953C507.381 66.5016 509.906 66.6628 512.399 66.4662C514.422 66.3053 516.403 64.3822 514.558 63.1486C511.402 61.0386 512.013 55.3759 506.691 55.5532C503.126 55.6722 505.273 52.6026 504.686 51.0373C505.316 50.161 505.944 49.2849 506.575 48.4089C511.703 44.4888 513.926 37.9276 519.373 34.2972C522.362 30.8795 526.005 28.3123 529.856 25.9546C531.654 24.856 534.812 24.0895 533.515 21.1067C532.494 18.7553 529.42 16.5036 527.413 17.3412C523.512 18.9711 518.56 17.1768 515.503 21.1035L515.501 21.1003C509.853 22.0635 503.425 19.4543 498.729 24.7724C499.143 22.1828 501.499 19.5928 498.723 17.0064C498.233 16.1044 497.743 15.1994 497.254 14.2974C501.858 10.632 501.755 9.59785 499.454 9.83296C493.199 10.4707 488.782 6.10945 483.29 4.91089C479.847 4.18285 478.233 -0.378196 474.025 0.494692C460.056 -0.98379 446.545 0.839303 433.517 6.13186C428.542 5.33313 423.561 3.49047 418.605 6.21233C412.181 7.60056 410.926 11.5077 413.258 17.1673C409.204 16.2461 406.481 11.8331 401.718 12.7704C397.65 10.9763 400.394 18.8291 395.693 16.8707C392.324 15.4663 388.486 15.1826 384.859 14.3968C382.294 15.3824 379.728 16.3714 377.166 17.357C371.653 18.9418 363.608 16.4872 363.168 26.1442C359.863 26.5469 356.111 25.7191 354.023 29.4685C351.775 30.5863 349.493 31.6397 347.293 32.8474C346.035 33.5366 344.11 33.8879 344.199 35.7271C344.289 37.5984 346.219 37.9623 347.573 38.1106C356.663 39.1157 351.212 43.1517 349.39 46.4469C349.111 46.7464 348.762 46.9011 348.39 47.0106C348.723 46.8203 349.057 46.6338 349.39 46.4435C344.956 47.0683 339.942 45.4352 336.259 48.9526C333.473 51.6133 326.921 49.2909 327.085 53.8712C327.256 58.6838 333.695 58.3098 337.145 60.5971C337.626 61.4217 338.105 62.2463 338.586 63.0741C336.678 63.8728 333.349 62.7036 333.002 65.3226C332.703 67.5903 335.602 66.0797 336.927 66.701C337.459 68.0186 338.615 68.0249 339.762 68.0539C339.44 74.4642 341.517 75.6174 347.876 72.5541C353.532 74.6123 359.087 70.8177 364.734 72.2543C365.734 72.5055 366.732 72.7601 367.732 73.0145C376.937 77.9072 381.862 86.1081 385.151 95.5688C386 99.328 389.701 102.672 386.283 107.065C385.347 108.27 386.628 109.79 388.601 109.89C396.957 110.306 397.005 110.363 399.706 117.817C397.923 117.505 396.236 117.215 394.55 116.922C390.718 113.44 390.926 118.449 389.528 119.544C386.905 121.602 388.028 124.44 390.066 126.015C392.115 127.6 395.405 127.609 397.021 125.583C399.194 122.855 394.383 122.616 394.277 120.384C397.586 120.426 400.727 120.98 403.272 123.344C402.679 124.803 402.086 126.263 401.497 127.721H401.495C400.015 129.309 398.535 130.897 397.053 132.485C394.281 136.048 388.47 138.812 393.874 144.529C391.494 147.87 392.721 150.536 395.433 152.93C396.119 154.872 396.805 156.815 397.491 158.754C402.846 159.333 399.097 164.658 401.635 166.703C403.312 172.289 406.385 176.966 410.791 180.773C412.526 186.13 417.897 179.727 420.075 183.643C420.237 187.821 423.246 188.481 426.362 188.208C431.463 187.757 429.25 182.774 430.92 180.148C432.788 176.802 431.213 172.949 432.49 169.515C438.501 167.67 437.088 163.028 436.562 158.715C437.269 157.188 437.974 155.661 438.68 154.135C442.658 153.842 445.504 151.722 447.708 148.562C452.516 150.681 455.977 148.227 459.261 145.16C460.105 143.537 460.947 141.91 461.791 140.281C463.842 138.209 465.889 136.135 467.936 134.061C472.329 134.164 476.615 133.764 480.476 131.39V131.403C481.919 131.181 483.362 130.952 484.806 130.723C490.911 128.804 494.526 123.154 500.134 120.49C496.749 118.064 493.178 116.335 488.962 117.034L488.961 117.035ZM423.287 174.239C423.253 174.2 423.209 174.164 423.176 174.123C423.211 174.129 423.247 174.129 423.282 174.136C423.287 174.117 423.285 174.104 423.288 174.084C423.298 174.094 423.304 174.104 423.316 174.113C423.306 174.119 423.295 174.129 423.287 174.136V174.239Z" fill="#E3C692"/>
<path fill-rule="evenodd" clip-rule="evenodd" d="M326.258 395.672C324.849 396.261 321.778 394.983 322.227 397.334C322.722 399.924 324.885 397.515 326.319 397.296C331.567 400.839 336.228 397.769 342 396.332C339.465 394.313 337.885 392.541 335.91 391.585C330.996 389.198 326.392 391.291 326.258 395.672Z" fill="#E3C692"/>
<path fill-rule="evenodd" clip-rule="evenodd" d="M753.559 28.2861C745.875 30.2026 739.771 28.1766 733.546 28.9981C742.744 32.8614 749.415 32.6241 753.559 28.2861Z" fill="#E3C692"/>
<path fill-rule="evenodd" clip-rule="evenodd" d="M992.73 414.274C995.128 416.194 997.723 417.337 1002.74 416.461C999.517 415.228 999.334 411.714 996.24 414.097C994.504 411.394 994.156 408.863 995.367 405.555C996.963 401.174 996.24 397.054 989.901 395.956C990.774 402.347 986.336 409.046 992.73 414.274Z" fill="#E3C692"/>
<path fill-rule="evenodd" clip-rule="evenodd" d="M544.345 238.027C547.106 240.455 549.038 236.755 551.123 235.273C559.013 235.157 554.157 228.653 556.03 225.542C557.855 222.514 558.362 219.689 554.901 217.685C553.073 216.629 549.312 217.093 549.459 218.355C549.934 222.436 540.166 222.704 546.054 228.164C545.059 231.43 540.324 234.487 544.345 238.027Z" fill="#E3C692"/>
<path fill-rule="evenodd" clip-rule="evenodd" d="M189.68 63.2806C193.233 63.0455 195.005 60.7424 196.096 57.7179C196.52 56.5452 196.715 55.2924 197.014 54.078C198.531 50.3545 195.468 49.8035 193.399 49.9067C190.925 50.0291 187.992 50.4962 186.911 53.5949C187.588 53.8233 188.263 54.0521 188.941 54.2809C188.792 57.0511 183.367 56.9706 185.341 60.8036C186.188 62.4528 187.673 63.4128 189.68 63.2806Z" fill="#E3C692"/>
<path fill-rule="evenodd" clip-rule="evenodd" d="M246.252 58.6195L246.151 58.729C246.206 58.7451 246.262 58.7517 246.317 58.7678C246.298 58.7161 246.275 58.6744 246.256 58.623C248.013 56.8125 251.453 55.0636 247.625 52.4288C245.094 50.683 242.068 46.8242 239.15 48.8404C235.519 51.3496 240.375 53.9202 241.036 56.5907C241.686 59.2254 244.434 58.0786 246.252 58.6198V58.6195Z" fill="#E3C692"/>
<path fill-rule="evenodd" clip-rule="evenodd" d="M777.039 28.6179C767.788 26.1762 778.353 23.7734 775.525 20.6296C771.756 22.9457 767.809 25.3775 763.251 28.1865C768.05 32.8248 772.074 30.6761 777.039 28.6179Z" fill="#E3C692"/>
<path fill-rule="evenodd" clip-rule="evenodd" d="M253.999 82.3625C254.033 79.3831 252.29 77.7532 249.147 77.0349C246.879 77.5051 244.877 79.4958 244.935 81.4865C245.031 84.8493 248.637 85.3261 251.158 85.9187C253.458 86.4663 253.98 84.1824 253.999 82.3625H253.999Z" fill="#E3C692"/>
<path fill-rule="evenodd" clip-rule="evenodd" d="M1097.06 80.1915C1095.99 79.2189 1095.54 78.452 1094.94 78.3232C1091.01 77.4923 1087.04 76.7933 1081.01 75.6658C1086.3 82.6072 1090.96 83.1355 1097.06 80.1915Z" fill="#E3C692"/>
<path fill-rule="evenodd" clip-rule="evenodd" d="M991.695 377.035C995.202 376.278 994.731 372.326 995.86 369.394C995.284 368.067 996.195 364.933 993.855 365.571C990.726 366.422 990.228 370.084 989.846 373.063C989.642 374.642 989.315 377.554 991.695 377.035Z" fill="#E3C692"/>
<path fill-rule="evenodd" clip-rule="evenodd" d="M1196.49 113.579C1197.9 111.662 1202.62 114.406 1203.16 110.267C1203.41 108.393 1200.38 107.719 1198.31 107.632C1195.25 107.504 1192.62 108.686 1192.22 111.875C1192 113.601 1194.15 113.801 1196.49 113.579V113.579Z" fill="#E3C692"/>
<path fill-rule="evenodd" clip-rule="evenodd" d="M1023.73 329.803C1028.49 331.114 1022.39 337.949 1027.48 337.656C1029.91 337.518 1029.49 332.812 1031.06 330.286C1029.96 328.769 1029.71 326.253 1026.98 326.566C1025.06 326.788 1023.29 329.684 1023.73 329.803Z" fill="#E3C692"/>
<path fill-rule="evenodd" clip-rule="evenodd" d="M955.672 387.941C953.809 389.327 950.345 389.414 950.251 392.966C950.213 394.474 951.179 396.033 953.06 395.779C956.279 395.347 957.536 392.731 958.284 390.055C958.684 388.647 957.476 387.877 955.672 387.941Z" fill="#E3C692"/>
<path fill-rule="evenodd" clip-rule="evenodd" d="M1065.37 275.827C1065.16 278.974 1062.11 279.828 1060.5 281.854C1057.86 284.076 1058.97 286.463 1059.57 288.93C1063.77 288.299 1059.89 284.64 1062.38 283.638C1068.83 286.531 1073.29 283.232 1077.39 278.823C1078.08 278.185 1079.3 277.586 1079.35 276.896C1079.46 275.392 1077.99 276.11 1077.24 276.056C1075.81 275.953 1074.35 276.111 1072.9 276.162C1069.94 274.967 1069.03 271.021 1065.37 270.384V275.827Z" fill="#E3C692"/>
<path fill-rule="evenodd" clip-rule="evenodd" d="M1088.7 495.379C1093.75 500.027 1097.33 499.228 1100.31 494.261C1101.25 493.118 1102.93 491.549 1101.47 490.448C1099.43 488.918 1099.38 491.488 1098.76 492.641H1098.75C1095.58 493.504 1092.41 494.368 1088.7 495.379Z" fill="#E3C692"/>
<path fill-rule="evenodd" clip-rule="evenodd" d="M1067.22 94.4447C1068.36 95.192 1070.73 95.205 1070.57 93.0436C1070.37 90.5407 1068.31 89.1623 1065.72 89.1137C1064.49 89.091 1063.26 89.3554 1062.02 89.4971C1059.14 95.7364 1065.23 93.1531 1067.22 94.4447Z" fill="#E3C692"/>
<path fill-rule="evenodd" clip-rule="evenodd" d="M1062.06 89.4106C1062.02 89.4009 1061.99 89.3945 1061.96 89.3848C1061.96 89.4267 1061.94 89.4656 1061.94 89.5072C1061.97 89.5041 1062 89.5006 1062.02 89.4974C1062.03 89.4652 1062.04 89.4425 1062.06 89.4106Z" fill="#E3C692"/>
<path fill-rule="evenodd" clip-rule="evenodd" d="M318.281 138.555C317.914 136.487 316.61 135.379 314.649 135.266C312.166 135.121 310.821 136.426 310.942 138.961C311.027 140.736 312.056 141.786 313.843 141.828C316.12 141.882 317.743 140.926 318.281 138.555V138.555Z" fill="#E3C692"/>
<path fill-rule="evenodd" clip-rule="evenodd" d="M794.848 29.1459C796.768 28.463 799.955 29.1589 799.813 25.78C799.758 24.382 798.834 22.8069 796.56 23.1417C794.514 23.77 792.202 24.6073 792.074 27.3421C792.008 28.6789 793.458 29.6354 794.848 29.1459Z" fill="#E3C692"/>
<path fill-rule="evenodd" clip-rule="evenodd" d="M783.213 33.179C785.967 33.4463 788.474 32.0032 789.271 29.7903C790.054 27.6097 786.759 28.0831 785.541 26.6948C782.986 27.0363 781.811 29.0623 780.993 31.0851C780.283 32.8536 782.067 33.066 783.213 33.179Z" fill="#E3C692"/>
<path fill-rule="evenodd" clip-rule="evenodd" d="M744.663 124.317C742.616 124.433 741.871 126.195 741.668 127.973C741.46 129.829 742.396 130.753 744.411 130.389C745.996 129.539 748.576 129.474 748.065 126.653C747.757 124.965 746.14 124.23 744.663 124.317Z" fill="#E3C692"/>
<path fill-rule="evenodd" clip-rule="evenodd" d="M853.969 434.915C853.827 434.77 853.468 434.586 853.446 434.619C850.178 438.526 849.732 442.659 852.486 447.033V447.036C858.714 445.831 859.293 442.275 854.359 435.54C854.232 435.327 854.135 435.086 853.969 434.915Z" fill="#E3C692"/>
<path fill-rule="evenodd" clip-rule="evenodd" d="M895.649 39.6988C896.263 40.375 896.873 41.0516 897.485 41.7279C902.011 46.5115 908.292 46.7077 914.116 48.1638C919.519 49.5135 918.77 44.92 919.785 42.3013C921.153 38.7804 919.434 37.1574 915.828 36.8545C913.844 36.69 911.905 35.9816 909.945 35.524C909.93 34.5479 909.914 33.5753 909.896 32.6024C912.712 26.5016 908.329 24.7492 904.055 24.3983C900.014 24.0698 897.643 27.7355 895.432 30.8115C889.962 32.8053 895.483 33.9811 895.773 35.5432H895.749L895.801 35.7108C893.693 35.933 890.125 33.195 889.911 37.2698C889.735 40.6812 893.143 40.1532 895.649 39.6988Z" fill="#E3C692"/>
<path fill-rule="evenodd" clip-rule="evenodd" d="M1008.24 431.259C1008.24 429.084 1008.24 426.91 1008.23 424.736C1005.66 420.845 1002.44 421.628 999.062 423.444C996.184 423.396 996.767 425.355 997.03 427.042C997.41 429.478 999.138 428.154 1000.37 428.215C1000.24 430.273 998.445 432.351 1000.46 434.386C1000.5 434.928 1000.54 435.472 1000.58 436.013C999.328 438.568 996.184 440.542 998.116 444.066C1000.7 441.898 1002.89 439.756 1004.66 445.181C1005.8 448.685 1007.73 449.661 1010.68 445.435C1014.89 439.434 1012.32 435.54 1008.29 431.459C1008.3 431.384 1008.31 431.317 1008.32 431.24C1008.29 431.249 1008.27 431.253 1008.24 431.259L1008.24 431.259Z" fill="#E3C692"/>
<path fill-rule="evenodd" clip-rule="evenodd" d="M45.2165 207.153C45.0635 207.51 45.8575 208.728 46.3744 208.85C49.5617 209.584 50.5716 207.32 52.4335 204.312C48.8678 204.373 46.4438 204.299 45.2165 207.153Z" fill="#E3C692"/>
<path fill-rule="evenodd" clip-rule="evenodd" d="M255.102 61.148C251.607 57.724 248.756 59.37 246.316 58.7676C248.046 63.203 250.871 61.7952 255.102 61.148Z" fill="#E3C692"/>
<path fill-rule="evenodd" clip-rule="evenodd" d="M998.759 507.039C995.435 506.753 992.668 505.442 989.907 509.545C993.579 509.52 996.422 510.538 998.759 507.039Z" fill="#E3C692"/>
<path fill-rule="evenodd" clip-rule="evenodd" d="M769.624 35.5274C772.423 35.5113 774.918 37.2151 777.239 32.7926C774.158 32.7023 771.46 31.3655 769.624 35.5274Z" fill="#E3C692"/>
<path fill-rule="evenodd" clip-rule="evenodd" d="M976.692 507.435C978.835 508.302 980.74 511.265 983.017 507.989C981.03 506.202 978.72 507.274 976.692 507.435Z" fill="#E3C692"/>
<path fill-rule="evenodd" clip-rule="evenodd" d="M1017.43 485.486C1019.63 486.804 1021.38 487.122 1024.29 485.016C1021.29 483.531 1019.47 482.825 1017.43 485.486Z" fill="#E3C692"/>
<path fill-rule="evenodd" clip-rule="evenodd" d="M356.527 248.624C358.036 250.425 359.418 252.11 363.01 251.99C361.251 248.885 359.495 247.642 356.527 248.624Z" fill="#E3C692"/>
<path fill-rule="evenodd" clip-rule="evenodd" d="M167.694 74.5385C166.636 74.9121 165.486 75.7592 164.966 76.7125C164.523 77.5308 165.133 78.6451 166.482 78.5646C167.913 78.481 168.58 77.4402 169.224 76.1811C169.077 75.3596 169.124 74.0361 167.694 74.5385Z" fill="#E3C692"/>
<path fill-rule="evenodd" clip-rule="evenodd" d="M1189 544.623C1188.02 544.556 1187.02 544.987 1186.89 546.15C1186.76 547.252 1187.36 547.96 1188.53 548.07C1189.52 547.993 1190.59 547.909 1190.66 546.627C1190.72 545.557 1190.08 544.697 1189 544.623Z" fill="#E3C692"/>
<path fill-rule="evenodd" clip-rule="evenodd" d="M324.622 660.719C324.677 660.684 324.712 660.648 324.768 660.613C324.778 660.536 324.777 660.458 324.781 660.381C324.728 660.42 324.678 660.446 324.622 660.484V660.719Z" fill="#E3C692"/>
<path fill-rule="evenodd" clip-rule="evenodd" d="M324.622 669.406V660.719C321.659 662.58 321.884 664.884 324.622 669.406Z" fill="#E3C692"/>
<path fill-rule="evenodd" clip-rule="evenodd" d="M121.232 227.929C120.13 230.696 121.556 232.509 122.723 236.307C123.039 232.278 123.981 230.052 121.232 227.929Z" fill="#E3C692"/>
<path fill-rule="evenodd" clip-rule="evenodd" d="M1016.75 469.304C1016.95 469.532 1018.52 469.12 1018.61 468.785C1019.1 466.891 1017.59 465.776 1016.34 463.941C1015.24 466.327 1015.53 467.954 1016.75 469.304Z" fill="#E3C692"/>
<path fill-rule="evenodd" clip-rule="evenodd" d="M216.555 78.5327C215.832 79.4829 214.891 80.1753 214.793 80.9712C214.632 82.2821 215.809 82.5204 216.847 82.2628C217.906 81.9987 218.657 81.2287 218.253 80.079C218.064 79.541 217.317 79.1995 216.555 78.533V78.5327Z" fill="#E3C692"/>
<path fill-rule="evenodd" clip-rule="evenodd" d="M215.239 63.6833C214.79 61.4995 213.811 59.921 210.97 59.0481C211.54 62.3787 212.896 63.5997 215.239 63.6833Z" fill="#E3C692"/>
<path fill-rule="evenodd" clip-rule="evenodd" d="M293.487 171.224C290.216 171.117 289.363 172.924 288.454 175.679C291.659 175.298 293.007 174.004 293.487 171.224Z" fill="#E3C692"/>
<path fill-rule="evenodd" clip-rule="evenodd" d="M2.94161 189.974C2.66611 191.646 4.16226 191.149 4.94679 191.114C5.48012 191.088 5.97905 190.392 6.49123 189.996C5.97431 189.574 5.45897 189.152 4.9146 188.708C4.10767 189.197 3.0205 189.5 2.94161 189.974Z" fill="#E3C692"/>
<path fill-rule="evenodd" clip-rule="evenodd" d="M183.522 67.3683C183.556 67.172 182.881 66.6759 182.487 66.608C180.116 66.2053 180.432 68.0897 180.111 69.4233C181.543 69.2204 183.186 69.3365 183.522 67.3683Z" fill="#E3C692"/>
<path fill-rule="evenodd" clip-rule="evenodd" d="M779.634 118.639C778.912 118.497 777.429 118.6 778.023 120.095C778.329 120.875 779.186 121.438 779.845 122.154C780.863 121.545 782.222 121.487 781.69 120.169C781.409 119.47 780.413 118.788 779.634 118.639V118.639Z" fill="#E3C692"/>
<path fill-rule="evenodd" clip-rule="evenodd" d="M1002.56 514.657C1004.17 515.814 1005.64 514.512 1006.4 512.763C1007.82 510.057 1012.46 511.43 1013.16 507.497C1008.86 506.347 1006.38 509.21 1003.59 511.307C1001.75 511.99 1001.31 513.758 1002.56 514.657Z" fill="#E3C692"/>
<path fill-rule="evenodd" clip-rule="evenodd" d="M181.256 59.9015C181.715 59.9691 182.285 59.2606 182.698 58.9737C182.421 57.4599 181.619 56.9831 180.512 57.1762C179.797 57.3053 179.003 57.7496 179.615 58.6613C179.99 59.2155 180.652 59.8113 181.256 59.9015Z" fill="#E3C692"/>
<path fill-rule="evenodd" clip-rule="evenodd" d="M514.48 78.8419C513.409 78.3941 512.559 78.8706 512.358 80.1077C512.15 81.4091 513 81.8279 514.108 82.0469C514.802 81.6281 516.361 82.0178 515.857 80.404C515.662 79.7855 515.066 79.0864 514.48 78.8419Z" fill="#E3C692"/>
<path fill-rule="evenodd" clip-rule="evenodd" d="M1061.14 85.7543C1060.78 85.6028 1059.63 86.2987 1059.5 86.7752C1058.96 88.8334 1060.56 89.0527 1061.96 89.3844C1062 88.0864 1063.02 86.5243 1061.14 85.7543Z" fill="#E3C692"/>
<path fill-rule="evenodd" clip-rule="evenodd" d="M1159.17 121.386C1159.8 120.449 1158.83 119.521 1157.87 119.418C1156.2 119.235 1156.17 120.61 1156 121.76C1157.14 122.246 1158.45 122.481 1159.17 121.386Z" fill="#E3C692"/>
<path fill-rule="evenodd" clip-rule="evenodd" d="M986.836 511.616C987.648 512.286 988.134 512.905 988.765 513.159C989.677 513.52 991.45 516.039 991.315 512.686C991.257 511.185 989.514 510.389 986.836 511.616Z" fill="#E3C692"/>
<path fill-rule="evenodd" clip-rule="evenodd" d="M310.767 396.77C310.126 397.234 309.195 397.576 309.158 397.998C309.047 399.244 310.058 399.631 311.097 399.47C311.984 399.331 313.378 399.296 313.17 398.027C313.088 397.508 311.67 397.211 310.767 396.77H310.767Z" fill="#E3C692"/>
<path fill-rule="evenodd" clip-rule="evenodd" d="M557.115 206.508C555.828 211.22 561.322 214.145 560.359 218.771C560.325 219.302 560.291 219.831 560.256 220.362C559.893 224.569 561.639 225.319 565.071 223.293C565.952 223.544 566.836 223.796 567.719 224.044V224.047C567.736 224.701 567.758 225.354 567.777 226.008C566.815 228.244 561.327 226.579 563.237 231.281C563.117 232.699 562.998 234.113 562.881 235.533C562.182 235.662 561.479 235.791 560.777 235.923C564.858 239.669 561.129 242.671 559.676 246.614C562.936 242.356 567.446 244.485 571.098 243.125C573.861 242.855 576.76 243.618 579.36 242.066C579.363 242.062 579.366 242.062 579.37 242.062C577.984 238.236 584.457 235.066 580.286 231.011C579.695 230.518 579.102 230.025 578.51 229.535C577.938 226.523 577.637 223.367 574.441 221.721C573.22 219.72 572.001 217.723 570.779 215.723C570.273 213.401 566.637 212.631 567.699 209.529C569.404 206.727 572.332 203.551 565.815 203.209C564.741 203.155 563.734 202.955 563.953 201.628C564.222 200.027 568.558 197.869 563.367 197.15C560.252 196.719 558.727 198.532 558.634 201.599C558.586 201.744 558.519 201.882 558.455 202.021C557.445 203.348 552.338 203.428 557.115 206.508Z" fill="#E3C692"/>
<path fill-rule="evenodd" clip-rule="evenodd" d="M606.826 303.418C610.948 300.381 611.597 297.453 609.874 293.829C609.387 292.808 608.073 292.119 607.464 292.892C605.1 295.881 606.385 299.157 606.826 303.418Z" fill="#E3C692"/>
<path fill-rule="evenodd" clip-rule="evenodd" d="M620.164 308.843C622.49 310.431 624.812 312.013 627.444 313.81C630.059 305.123 623.532 308.808 620.164 308.843Z" fill="#E3C692"/>
<path fill-rule="evenodd" clip-rule="evenodd" d="M694.268 319.234C691.468 319.508 689.357 319.547 688.574 322.587C691.769 323.757 693.042 322.256 694.268 319.234Z" fill="#E3C692"/>
<path fill-rule="evenodd" clip-rule="evenodd" d="M608.833 284.507C608.714 284.366 607.793 284.623 607.487 284.936C605.561 286.888 606.627 288.466 608.77 290.573C609.703 288.215 610.331 286.318 608.833 284.508L608.833 284.507Z" fill="#E3C692"/>
<path fill-rule="evenodd" clip-rule="evenodd" d="M423.282 174.139C423.284 174.139 423.286 174.139 423.288 174.136H423.282V174.139Z" fill="#E3C692"/>
</g>
</svg>
